<?xml version="1.0" encoding="UTF-8"?>
<svg version="1.1" xmlns="http://www.w3.org/2000/svg" width="803" height="307">
<path d="M0 0 C264.99 0 529.98 0 803 0 C803 101.31 803 202.62 803 307 C538.01 307 273.02 307 0 307 C0 205.69 0 104.38 0 0 Z " fill="#FDFDFD" transform="translate(0,0)"/>
<path d="M0 0 C1.7082007 7.16305493 3.2740264 14.30980414 4.52734375 21.56640625 C5.00937543 24.25406531 5.00937543 24.25406531 6.125 27.8125 C7.00761891 31.0277546 7.16174668 33.68419311 7 37 C1.68123328 33.26554677 -2.81108757 29.29871787 -7.140625 24.44140625 C-8.87043491 22.75685425 -8.87043491 22.75685425 -10.96557617 23.20825195 C-13.42975885 24.16725164 -14.03931512 24.99368296 -15.41015625 27.2265625 C-15.8373999 27.9175 -16.26464355 28.6084375 -16.70483398 29.3203125 C-17.15286377 30.08085938 -17.60089355 30.84140625 -18.0625 31.625 C-18.5356665 32.41390625 -19.00883301 33.2028125 -19.49633789 34.015625 C-26.73590255 46.35739316 -32.87011819 59.40888227 -38.09545898 72.72265625 C-39.33861197 75.85251617 -40.70047767 78.92001351 -42.0625 82 C-44.13212705 86.79118661 -45.82973212 91.49134603 -47.2265625 96.51171875 C-48.45026855 100.44859124 -50.11563211 104.18647492 -51.73828125 107.97265625 C-52.96384793 110.91325743 -54.06166944 113.87241524 -55.125 116.875 C-56.50642881 120.747439 -58.09282941 124.35149975 -60 128 C-61.03247433 130.32069919 -62.01633919 132.65795046 -63 135 C-63.66 135 -64.32 135 -65 135 C-65.309375 135.99 -65.309375 135.99 -65.625 137 C-67.19726515 140.43039669 -69.22875229 143.08879976 -71.5625 146.03515625 C-73.05128233 147.91384738 -73.05128233 147.91384738 -73.8359375 149.96484375 C-77.76314638 156.83087002 -87.8819698 161.96771914 -95 165 C-95.68578125 165.34675781 -96.3715625 165.69351563 -97.078125 166.05078125 C-114.24983545 174.08176828 -136.62263097 171.27885229 -155.18648553 171.23213124 C-159.5420377 171.22340787 -163.89758484 171.22642312 -168.25314331 171.22793579 C-175.77973998 171.22897908 -183.30630168 171.22276102 -190.83288956 171.21146011 C-201.71475953 171.1951321 -212.59661278 171.18998968 -223.47849368 171.18748413 C-241.13817852 171.18311842 -258.79784477 171.16983998 -276.45751953 171.15087891 C-293.6013988 171.1324909 -310.745273 171.11834873 -327.88916016 171.10986328 C-328.94780156 171.10933783 -330.00644296 171.10881239 -331.09716441 171.10827102 C-336.40862232 171.10566074 -341.72008027 171.10313337 -347.03153825 171.10064721 C-391.02103837 171.07994975 -435.01051822 171.04475503 -479 171 C-479 167.37 -479 163.74 -479 160 C-478.24703951 159.99902319 -477.49407901 159.99804638 -476.71830153 159.99703997 C-432.0760085 159.93874787 -387.4337642 159.86493586 -342.79153119 159.77101372 C-337.4293804 159.75974577 -332.06722935 159.74860728 -326.70507812 159.73754883 C-325.63758576 159.73534514 -324.5700934 159.73314146 -323.47025278 159.730871 C-306.19334192 159.69551394 -288.9164311 159.67064081 -271.63949749 159.64965298 C-253.90725603 159.62787827 -236.17506146 159.59481195 -218.44285989 159.55129844 C-207.50417387 159.52481055 -196.56554626 159.50709409 -185.62682977 159.50065396 C-178.12225933 159.49539133 -170.61776233 159.47914495 -163.11323127 159.45433434 C-158.78573945 159.44034937 -154.45837901 159.4311373 -150.13086319 159.43499184 C-146.16281612 159.4384189 -142.19504896 159.42794101 -138.22705916 159.40676448 C-136.79752421 159.40152528 -135.36795996 159.40123127 -133.93842551 159.40660437 C-116.18106645 159.46650857 -98.05848564 154.94655764 -85.0703125 142.08984375 C-83.30143288 140.11262942 -81.64098452 138.08428366 -80 136 C-79.41476562 135.2884375 -78.82953125 134.576875 -78.2265625 133.84375 C-68.17329066 121.37593689 -61.30965091 106.63839012 -55 92 C-54.67 91.34 -54.34 90.68 -54 90 C-62.33331426 89.89783014 -62.33331426 89.89783014 -69.625 93.3125 C-73.19939449 97.35720955 -74.25668543 99.82179917 -74.02734375 105.21875 C-73.68841327 123.84654749 -73.68841327 123.84654749 -78.75610352 129.7265625 C-81.05483582 131.97457919 -83.48259465 134.00189548 -86 136 C-87.26070313 137.38638672 -87.26070313 137.38638672 -88.546875 138.80078125 C-91 141 -91 141 -96 141 C-96 118.56 -96 96.12 -96 73 C-89.4 73 -82.8 73 -76 73 C-76 76.63 -76 80.26 -76 84 C-75.34 84 -74.68 84 -74 84 C-73.91621094 83.25234375 -73.83242188 82.5046875 -73.74609375 81.734375 C-72.84320915 78.42537385 -71.68985015 77.39749054 -69.0625 75.25 C-67.99708984 74.36054688 -67.99708984 74.36054688 -66.91015625 73.453125 C-63.44205241 70.81481288 -61.19489638 70.89154366 -56.875 70.9375 C-55.77929688 70.94652344 -54.68359375 70.95554687 -53.5546875 70.96484375 C-52.71164062 70.97644531 -51.86859375 70.98804688 -51 71 C-50.67 74.63 -50.34 78.26 -50 82 C-48.02 77.71 -46.04 73.42 -44 69 C-43.34 69 -42.68 69 -42 69 C-41.9175 68.34 -41.835 67.68 -41.75 67 C-39.79007524 59.16030097 -34.75793547 51.96947586 -30.6875 45.0625 C-29.87249023 43.65581055 -29.87249023 43.65581055 -29.04101562 42.22070312 C-25.44172783 36.10573839 -21.50049487 30.48553444 -17 25 C-18.01368652 25.52956299 -18.01368652 25.52956299 -19.04785156 26.06982422 C-22.11504654 27.6719094 -25.18252015 29.27346034 -28.25 30.875 C-29.31347656 31.43058594 -30.37695312 31.98617187 -31.47265625 32.55859375 C-32.49746094 33.09355469 -33.52226562 33.62851563 -34.578125 34.1796875 C-35.52075195 34.67194824 -36.46337891 35.16420898 -37.43457031 35.67138672 C-38.28116211 36.1098291 -39.12775391 36.54827148 -40 37 C-40.70995117 37.40879395 -41.41990234 37.81758789 -42.15136719 38.23876953 C-44 39 -44 39 -47 38 C-42.98439347 34.54277663 -38.9630885 31.09239612 -34.93359375 27.65136719 C-33.68534275 26.5853104 -32.43788822 25.51831999 -31.19140625 24.45019531 C-29.54863253 23.04489738 -27.90029925 21.6464465 -26.25 20.25 C-25.28578125 19.43015625 -24.3215625 18.6103125 -23.328125 17.765625 C-21 16 -21 16 -19 16 C-19 15.34 -19 14.68 -19 14 C-17.53190495 12.68846237 -15.99804216 11.45005925 -14.4375 10.25 C-11.21144125 7.74236852 -8.05533462 5.21298211 -5 2.5 C-2 0 -2 0 0 0 Z " fill="#2E517A" transform="translate(539,59)"/>
<path d="M0 0 C0 6.27 0 12.54 0 19 C-9 18 -9 18 -12.0859375 17.453125 C-22.32752135 15.8605999 -36.22529402 15.4630372 -45.15234375 21.44140625 C-47.05273937 23.17305638 -48.51361023 24.9049771 -50 27 C-50.43183594 27.59039062 -50.86367187 28.18078125 -51.30859375 28.7890625 C-55.94636118 36.84497686 -55.50294473 49.26681572 -53.19921875 58.0546875 C-52.2741082 60.17636961 -51.2451927 62.05380992 -50 64 C-49.608125 64.9075 -49.21625 65.815 -48.8125 66.75 C-45.20212142 71.23184927 -39.57229768 73.81754956 -34 75 C-24.28507865 75.77965079 -14.59925527 75.5247715 -5.25 72.65625 C-3 72 -3 72 0 72 C0 78.27 0 84.54 0 91 C-16.45489631 97.58195852 -35.2985515 98.50258976 -51.91796875 91.828125 C-59.77187483 88.06938708 -65.33893156 83.4000468 -70 76 C-70 75.34 -70 74.68 -70 74 C-70.99 73.67 -71.98 73.34 -73 73 C-79.3679001 57.37622256 -80.56491076 40.53365123 -74.609375 24.6328125 C-69.38551251 12.84108406 -61.32387086 4.95641171 -49.4375 0.125 C-33.91691699 -5.72670546 -15.7642264 -3.78341434 0 0 Z " fill="#20416E" transform="translate(137,107)"/>
<path d="M0 0 C5.97355269 4.52052636 10.52417834 10.30876144 14.3125 16.75 C14.3125 17.74 14.3125 18.73 14.3125 19.75 C14.9725 19.75 15.6325 19.75 16.3125 19.75 C16.3125 26.68 16.3125 33.61 16.3125 40.75 C0.1425 40.75 -16.0275 40.75 -32.6875 40.75 C-31.6975 42.73 -30.7075 44.71 -29.6875 46.75 C-29.3575 47.74 -29.0275 48.73 -28.6875 49.75 C-26.31124655 50.93391223 -26.31124655 50.93391223 -23.6875 51.75 C-22.2025 52.245 -22.2025 52.245 -20.6875 52.75 C-10.40985688 53.69451658 -0.98360476 53.49334275 8.3125 48.75 C8.9725 48.75 9.6325 48.75 10.3125 48.75 C10.3125 54.36 10.3125 59.97 10.3125 65.75 C1.92335279 69.53102409 -5.24563688 70.16081961 -14.375 70.1875 C-15.44355225 70.19716797 -16.51210449 70.20683594 -17.61303711 70.21679688 C-27.53897999 70.11212693 -36.24092325 68.22046525 -43.46875 60.9609375 C-51.18931776 52.48794152 -53.88819068 45.49973433 -54 34.125 C-54.02900391 33.16464844 -54.05800781 32.20429688 -54.08789062 31.21484375 C-54.1750921 21.32753844 -51.11080836 14.63887455 -44.41015625 7.46875 C-33.92173666 -2.99588633 -13.73395677 -6.38788687 0 0 Z " fill="#255180" transform="translate(335.6875,132.25)"/>
<path d="M0 0 C8.16803773 4.64591408 13.36463223 11.08823803 16.640625 19.82421875 C17.67321208 26.58297054 17.328125 33.48704376 17.328125 40.32421875 C1.488125 40.32421875 -14.351875 40.32421875 -30.671875 40.32421875 C-28.81618769 48.79747164 -28.81618769 48.79747164 -25.609375 50.82421875 C-21.29803005 51.5580647 -17.0377515 52.05652997 -12.671875 52.32421875 C-11.84042969 52.37835938 -11.00898438 52.4325 -10.15234375 52.48828125 C-3.81597799 52.70780888 1.36483098 51.34336918 7.328125 49.32421875 C9.308125 48.82921875 9.308125 48.82921875 11.328125 48.32421875 C11.328125 53.93421875 11.328125 59.54421875 11.328125 65.32421875 C-2.68473161 71.14087621 -18.23826677 72.68123021 -32.671875 67.32421875 C-39.3842313 64.00934741 -43.6487506 59.55357267 -47.671875 53.32421875 C-48.538125 52.05578125 -48.538125 52.05578125 -49.421875 50.76171875 C-54.09197587 41.65502206 -53.97984517 30.1625326 -52.08984375 20.28125 C-49.34427708 12.39558134 -43.13562284 5.11496746 -35.984375 0.82421875 C-24.96254843 -4.16679706 -11.27072478 -4.92662049 0 0 Z " fill="#2E6594" transform="translate(412.671875,132.67578125)"/>
<path d="M0 0 C4.99241207 4.07543842 7.89163446 8.95683557 10 15 C10.24050903 17.53742981 10.24050903 17.53742981 10.22705078 20.24926758 C10.22689972 21.26994827 10.22674866 22.29062897 10.22659302 23.34223938 C10.21627045 24.4319957 10.20594788 25.52175201 10.1953125 26.64453125 C10.1924826 27.7694548 10.18965271 28.89437836 10.18673706 30.0533905 C10.17555836 33.63986936 10.15045763 37.22609685 10.125 40.8125 C10.11496723 43.24674118 10.1058419 45.68098628 10.09765625 48.11523438 C10.07562652 54.0769195 10.04111218 60.03841716 10 66 C3.4 66 -3.2 66 -10 66 C-10 63.03 -10 60.06 -10 57 C-10.66 57 -11.32 57 -12 57 C-12.2475 57.60457031 -12.495 58.20914063 -12.75 58.83203125 C-14.20804754 61.36083245 -15.49782345 62.22943021 -18 63.6875 C-19.051875 64.31205078 -19.051875 64.31205078 -20.125 64.94921875 C-26.5424279 68.5456523 -35.39298893 67.7781482 -42.5 66.3125 C-47.90160555 64.28689792 -51.43693927 61.37878396 -54.375 56.4375 C-56.98589415 50.64526423 -57.17194716 43.96264633 -55.375 37.88671875 C-52.27502894 31.64525917 -46.92595737 28.06070059 -40.51953125 25.73828125 C-30.68469312 22.81089184 -21.18914564 22.54602816 -11 23 C-11.81130625 18.7812075 -12.42581688 16.5232954 -15.64453125 13.58984375 C-24.88129173 9.21340427 -36.70891556 11.86507116 -46 15 C-47.32 15.33 -48.64 15.66 -50 16 C-50 10.39 -50 4.78 -50 -1 C-34.64305144 -6.11898285 -14.42079782 -8.98223755 0 0 Z " fill="#224371" transform="translate(204,135)"/>
<path d="M0 0 C1.7082007 7.16305493 3.2740264 14.30980414 4.52734375 21.56640625 C5.00937543 24.25406531 5.00937543 24.25406531 6.125 27.8125 C7.00761891 31.0277546 7.16174668 33.68419311 7 37 C1.68123328 33.26554677 -2.81108757 29.29871787 -7.140625 24.44140625 C-8.87043491 22.75685425 -8.87043491 22.75685425 -10.96557617 23.20825195 C-13.42975885 24.16725164 -14.03931512 24.99368296 -15.41015625 27.2265625 C-15.8373999 27.9175 -16.26464355 28.6084375 -16.70483398 29.3203125 C-17.37687866 30.46113281 -17.37687866 30.46113281 -18.0625 31.625 C-18.5356665 32.41390625 -19.00883301 33.2028125 -19.49633789 34.015625 C-26.73590255 46.35739316 -32.87011819 59.40888227 -38.09545898 72.72265625 C-39.33861197 75.85251617 -40.70047767 78.92001351 -42.0625 82 C-44.13212705 86.79118661 -45.82973212 91.49134603 -47.2265625 96.51171875 C-48.45026855 100.44859124 -50.11563211 104.18647492 -51.73828125 107.97265625 C-52.96384793 110.91325743 -54.06166944 113.87241524 -55.125 116.875 C-56.50642881 120.747439 -58.09282941 124.35149975 -60 128 C-61.03247433 130.32069919 -62.01633919 132.65795046 -63 135 C-63.66 135 -64.32 135 -65 135 C-65.20625 135.66 -65.4125 136.32 -65.625 137 C-67.19726515 140.43039669 -69.22875229 143.08879976 -71.5625 146.03515625 C-73.05128233 147.91384738 -73.05128233 147.91384738 -73.8359375 149.96484375 C-77.74246671 156.79471529 -87.88603418 162.0265846 -95 165 C-95.825 165.35835937 -96.65 165.71671875 -97.5 166.0859375 C-105.5208221 169.4518182 -112.35983306 170.15367886 -121 170 C-119.03825669 169.01695346 -117.07534619 168.03697401 -115.10546875 167.0703125 C-102.98462214 161.76625276 -102.98462214 161.76625276 -94 153 C-92.68 153 -91.36 153 -90 153 C-89.79375 152.13375 -89.5875 151.2675 -89.375 150.375 C-87.86181573 146.66082044 -86.2090132 144.97098515 -83.2421875 142.39453125 C-81.66742878 140.93790027 -81.66742878 140.93790027 -82 138 C-80.71484375 136.34375 -80.71484375 136.34375 -78.9375 134.5 C-70.81712508 125.48279652 -65.95156701 114.97822856 -60.95654297 104.05957031 C-58.75364724 99.31642882 -56.37085477 94.66088495 -54 90 C-62.33331426 89.89783014 -62.33331426 89.89783014 -69.625 93.3125 C-73.19939449 97.35720955 -74.25668543 99.82179917 -74.02734375 105.21875 C-73.68841327 123.84654749 -73.68841327 123.84654749 -78.75610352 129.7265625 C-81.05483582 131.97457919 -83.48259465 134.00189548 -86 136 C-86.84046875 136.92425781 -87.6809375 137.84851563 -88.546875 138.80078125 C-91 141 -91 141 -96 141 C-96 118.56 -96 96.12 -96 73 C-89.4 73 -82.8 73 -76 73 C-76 76.63 -76 80.26 -76 84 C-75.34 84 -74.68 84 -74 84 C-73.91621094 83.25234375 -73.83242188 82.5046875 -73.74609375 81.734375 C-72.84320915 78.42537385 -71.68985015 77.39749054 -69.0625 75.25 C-67.99708984 74.36054688 -67.99708984 74.36054688 -66.91015625 73.453125 C-63.44205241 70.81481288 -61.19489638 70.89154366 -56.875 70.9375 C-55.77929688 70.94652344 -54.68359375 70.95554687 -53.5546875 70.96484375 C-52.71164062 70.97644531 -51.86859375 70.98804688 -51 71 C-50.505 76.445 -50.505 76.445 -50 82 C-47.03 75.565 -47.03 75.565 -44 69 C-43.34 69 -42.68 69 -42 69 C-41.9175 68.34 -41.835 67.68 -41.75 67 C-39.79007524 59.16030097 -34.75793547 51.96947586 -30.6875 45.0625 C-30.14416016 44.12470703 -29.60082031 43.18691406 -29.04101562 42.22070312 C-25.44172783 36.10573839 -21.50049487 30.48553444 -17 25 C-17.67579102 25.35304199 -18.35158203 25.70608398 -19.04785156 26.06982422 C-22.11504654 27.6719094 -25.18252015 29.27346034 -28.25 30.875 C-29.31347656 31.43058594 -30.37695312 31.98617187 -31.47265625 32.55859375 C-32.49746094 33.09355469 -33.52226562 33.62851563 -34.578125 34.1796875 C-35.52075195 34.67194824 -36.46337891 35.16420898 -37.43457031 35.67138672 C-38.28116211 36.1098291 -39.12775391 36.54827148 -40 37 C-41.06492676 37.61319092 -41.06492676 37.61319092 -42.15136719 38.23876953 C-44 39 -44 39 -47 38 C-42.98439347 34.54277663 -38.9630885 31.09239612 -34.93359375 27.65136719 C-33.68534275 26.5853104 -32.43788822 25.51831999 -31.19140625 24.45019531 C-29.54863253 23.04489738 -27.90029925 21.6464465 -26.25 20.25 C-25.28578125 19.43015625 -24.3215625 18.6103125 -23.328125 17.765625 C-21 16 -21 16 -19 16 C-19 15.34 -19 14.68 -19 14 C-17.53190495 12.68846237 -15.99804216 11.45005925 -14.4375 10.25 C-11.21144125 7.74236852 -8.05533462 5.21298211 -5 2.5 C-2 0 -2 0 0 0 Z " fill="#50A1CF" transform="translate(539,59)"/>
<path d="M0 0 C0.33 0.66 0.66 1.32 1 2 C0.1494824 4.34191819 -0.75990474 6.59289954 -1.75 8.875 C-4.17369952 14.65571461 -5.95546679 20.30799473 -7.359375 26.4296875 C-8.37595227 30.50839387 -10.14219171 34.19145418 -11.9375 37.9765625 C-18.59842443 53.11975789 -20.17922586 70.15837947 -20.0625 86.5 C-20.05798828 87.70398438 -20.05347656 88.90796875 -20.04882812 90.1484375 C-20.0371195 93.09901073 -20.02071995 96.04947859 -20 99 C-19.34 99 -18.68 99 -18 99 C-17.01 102.96 -16.02 106.92 -15 111 C-14.34 111 -13.68 111 -13 111 C-12.649375 111.70125 -12.29875 112.4025 -11.9375 113.125 C-7.64774629 119.49044099 -0.21778489 122.88761756 7 125 C9.78532487 125.38976488 12.51755294 125.41734446 15.32702637 125.39872742 C16.12607092 125.40537424 16.92511548 125.41202107 17.74837351 125.41886932 C20.40464705 125.43740418 23.06046638 125.4349005 25.71679688 125.43237305 C27.62928906 125.44139602 29.54177545 125.45172456 31.45425415 125.46325684 C36.63131662 125.49078995 41.80826924 125.50010637 46.98539543 125.50611091 C52.40131848 125.51550414 57.81715979 125.54170833 63.23303223 125.56611633 C73.4821305 125.60975884 83.73121289 125.63831966 93.98037577 125.66143972 C105.65148671 125.6885034 117.32251534 125.73241423 128.99356747 125.77772844 C152.99566699 125.87054253 176.99779233 125.94223813 201 126 C201 129.63 201 133.26 201 137 C176.52071732 137.09367483 152.04146173 137.16409229 127.56203556 137.20724869 C116.19437205 137.22782458 104.82682028 137.25584957 93.45922852 137.30175781 C83.54474016 137.34177839 73.63033278 137.3674689 63.71576589 137.37635398 C58.47195398 137.38154306 53.2283736 137.39363435 47.98463631 137.42292023 C43.0360407 137.45033047 38.08776917 137.45839394 33.13910484 137.45243073 C31.33532568 137.45351963 29.53153422 137.46131946 27.72782135 137.4768219 C10.7578701 137.61536121 -4.87046341 135.49103425 -19.25 125.8125 C-27.22098225 117.66035907 -31.33959665 107.47534296 -31.41674805 96.14746094 C-31.40297119 95.23254883 -31.38919434 94.31763672 -31.375 93.375 C-31.36702393 92.41368164 -31.35904785 91.45236328 -31.35083008 90.46191406 C-31.19027282 82.35140147 -30.09605618 74.8554032 -28 67 C-27.76023437 66.08089844 -27.52046875 65.16179687 -27.2734375 64.21484375 C-25.88924181 59.29410411 -24.10127 54.58873713 -22.15234375 49.8671875 C-21.04031489 47.10030891 -20.0069377 44.31100416 -18.98583984 41.50952148 C-13.72799111 27.15074479 -7.5275144 13.3142911 0 0 Z " fill="#275381" transform="translate(523,93)"/>
<path d="M0 0 C1.11858398 -0.01160156 1.11858398 -0.01160156 2.25976562 -0.0234375 C6.0857839 -0.00978534 9.07220317 0.09550184 12.3125 2.25 C12.3125 2.91 12.3125 3.57 12.3125 4.25 C12.910625 4.4975 13.50875 4.745 14.125 5 C16.70217958 6.47267405 17.74353914 7.7370404 19.3125 10.25 C20.33817116 14.9695738 20.23664675 19.4017065 18.05859375 23.7578125 C9.37716038 35.64190922 -4.67943457 40.65946735 -18.6875 43.25 C-21.41853304 43.4474747 -23.94748326 43.40807789 -26.6875 43.25 C-25.76196055 49.41214423 -24.84076135 54.36381018 -20.6875 59.25 C-15.98230596 62.18442209 -11.04950785 61.83117246 -5.6875 61.25 C-0.61914517 59.87772513 3.93790939 58.16639374 8.3125 55.25 C9.3025 55.25 10.2925 55.25 11.3125 55.25 C13.3125 58.25 13.3125 58.25 13.171875 60.27734375 C12.0715782 62.80302503 10.93869442 63.45914115 8.5625 64.8125 C7.840625 65.23144531 7.11875 65.65039062 6.375 66.08203125 C5.694375 66.46746094 5.01375 66.85289062 4.3125 67.25 C3.405 67.8275 2.4975 68.405 1.5625 69 C-5.30580458 72.81572477 -15.79740093 72.16464298 -23.33984375 70.75390625 C-29.72889776 68.58334472 -33.67237765 64.12155405 -36.6875 58.25 C-36.6875 57.59 -36.6875 56.93 -36.6875 56.25 C-37.3475 56.25 -38.0075 56.25 -38.6875 56.25 C-41.7065293 43.06935988 -39.47934175 29.67859194 -33 17.875 C-25.21805617 5.88606623 -14.12649478 -0.1488305 0 0 Z " fill="#60B6E0" transform="translate(630.6875,130.75)"/>
<path d="M0 0 C0.58051881 8.94428987 -1.18625975 17.29836524 -3 26 C-5.97 26 -8.94 26 -12 26 C-12.02705308 23.58325776 -12.04686438 21.1668206 -12.0625 18.75 C-12.07087891 18.06808594 -12.07925781 17.38617188 -12.08789062 16.68359375 C-12.10444842 13.27268829 -11.91456587 10.27851294 -11 7 C-14.85415052 6.97076441 -18.70827215 6.95312223 -22.5625 6.9375 C-23.64853516 6.92912109 -24.73457031 6.92074219 -25.85351562 6.91210938 C-31.34832611 6.89540782 -36.58961935 7.01417741 -42 8 C-42 8.66 -42 9.32 -42 10 C-43.010625 10.33 -44.02125 10.66 -45.0625 11 C-51.68176803 13.85405686 -56.19454794 20.19046598 -59.08984375 26.6328125 C-64.55140249 40.83755326 -66.78761231 55.46833272 -61 70 C-58.25665065 75.4866987 -54.40904812 78.34829868 -49 81 C-45.73906852 82.0213992 -42.76665766 82.11578009 -39.359375 82.09765625 C-38.28945313 82.09443359 -37.21953125 82.09121094 -36.1171875 82.08789062 C-35.00601563 82.07951172 -33.89484375 82.07113281 -32.75 82.0625 C-31.62335937 82.05798828 -30.49671875 82.05347656 -29.3359375 82.04882812 C-26.55723783 82.03705397 -23.77864591 82.0206084 -21 82 C-20.94593994 81.33758301 -20.89187988 80.67516602 -20.83618164 79.99267578 C-20.28864845 73.85828655 -19.14366384 68.77857209 -17 63 C-13.7 63 -10.4 63 -7 63 C-7.30048916 67.10995945 -7.67445176 71.20995532 -8.0625 75.3125 C-8.14693359 76.47974609 -8.23136719 77.64699219 -8.31835938 78.84960938 C-8.64120685 82.05041153 -9.00959886 84.93805074 -10 88 C-13.265625 90.21875 -13.265625 90.21875 -17 91 C-18.39798828 91.36158203 -18.39798828 91.36158203 -19.82421875 91.73046875 C-34.03731079 93.99913419 -50.16896954 95.68380612 -63 88 C-70.67258938 81.98300962 -75.72006383 74.47084597 -78 65 C-78.35654389 61.23783553 -78.33185207 57.52542689 -78.25 53.75 C-78.24484375 52.78320312 -78.2396875 51.81640625 -78.234375 50.8203125 C-78.18562903 46.39661547 -77.96441303 42.33116152 -77 38 C-76.34 38 -75.68 38 -75 38 C-74.979375 36.783125 -74.95875 35.56625 -74.9375 34.3125 C-73.8124242 24.26604852 -67.17799653 14.84815424 -60 8 C-59.44183594 7.45859375 -58.88367188 6.9171875 -58.30859375 6.359375 C-42.82690458 -6.88198334 -18.34978831 -5.34274599 0 0 Z " fill="#6ABDE2" transform="translate(586,109)"/>
<path d="M0 0 C0 6.27 0 12.54 0 19 C-2.02125 19.103125 -4.0425 19.20625 -6.125 19.3125 C-12.99217939 19.84160456 -12.99217939 19.84160456 -19 23 C-23.37459589 28.17778382 -23.60041011 32.29601138 -23.609375 38.7734375 C-23.62591125 39.6971817 -23.64244751 40.6209259 -23.65948486 41.57266235 C-23.70785236 44.5068433 -23.72931083 47.44050638 -23.75 50.375 C-23.77816909 52.37111965 -23.80809782 54.36721529 -23.83984375 56.36328125 C-23.91690418 61.24242312 -23.95752781 66.11994548 -24 71 C-31.26 71 -38.52 71 -46 71 C-46 47.9 -46 24.8 -46 1 C-39.07 1 -32.14 1 -25 1 C-24.67 4.3 -24.34 7.6 -24 11 C-23.484375 10.0925 -22.96875 9.185 -22.4375 8.25 C-19.50633773 3.85325659 -15.60698578 1.80214947 -10.5625 0.25 C-7.0573225 -0.09196854 -3.52181939 0 0 0 Z " fill="#1B4271" transform="translate(277,130)"/>
<path d="M0 0 C0 5.61 0 11.22 0 17 C-1.815 17.04125 -3.63 17.0825 -5.5 17.125 C-11.72266007 17.63252192 -15.77090489 19.36968305 -20 24 C-21.97434017 27.21034147 -22.18605295 29.4839481 -22.02734375 33.21875 C-21.68841327 51.84654749 -21.68841327 51.84654749 -26.75610352 57.7265625 C-29.05483582 59.97457919 -31.48259465 62.00189548 -34 64 C-34.84046875 64.92425781 -35.6809375 65.84851563 -36.546875 66.80078125 C-39 69 -39 69 -44 69 C-44 46.56 -44 24.12 -44 1 C-37.4 1 -30.8 1 -24 1 C-24 4.63 -24 8.26 -24 12 C-23.34 12 -22.68 12 -22 12 C-21.95875 11.29875 -21.9175 10.5975 -21.875 9.875 C-20.63969258 5.81613275 -18.38808991 3.49732449 -15 1 C-10.17656031 -0.50062568 -5.01926466 -0.07604946 0 0 Z " fill="#266191" transform="translate(487,131)"/>
<path d="M0 0 C0.83144531 0.00451172 1.66289063 0.00902344 2.51953125 0.01367188 C4.55471897 0.02536836 6.58986923 0.04330065 8.625 0.0625 C7.26956915 9.97854677 5.83081034 19.87823488 4.23046875 29.7578125 C0.87920916 50.48337127 -2.03608273 71.19700639 -4.375 92.0625 C-3.26125 92.041875 -2.1475 92.02125 -1 92 C2.625 92.0625 2.625 92.0625 4.625 93.0625 C4.625 95.3725 4.625 97.6825 4.625 100.0625 C-6.265 100.0625 -17.155 100.0625 -28.375 100.0625 C-28.375 97.7525 -28.375 95.4425 -28.375 93.0625 C-23.425 92.0725 -23.425 92.0725 -18.375 91.0625 C-16.16693819 79.65759264 -14.22720277 68.22748608 -12.4375 56.75 C-12.17698881 55.09032132 -11.9164085 53.43065349 -11.65576172 51.77099609 C-9.47991321 37.88020904 -7.39670325 23.97657532 -5.375 10.0625 C-8.675 9.7325 -11.975 9.4025 -15.375 9.0625 C-16.30038169 5.36097322 -16.45674162 4.42791838 -15.375 1.0625 C-10.20182579 -0.00059567 -5.25130664 -0.05443938 0 0 Z " fill="#5BB1DA" transform="translate(720.375,100.9375)"/>
<path d="M0 0 C-0.55135646 7.17448317 -1.46991089 14.17279121 -2.75 21.25 C-5.01692002 34.23858065 -6.64039251 47.29843162 -8.24902344 60.38183594 C-9.17986532 67.90853233 -10.1305786 75.39368691 -11.58496094 82.84179688 C-12.16954878 85.88165363 -12.59095065 88.93212984 -13 92 C-9.7 92.33 -6.4 92.66 -3 93 C-3 95.31 -3 97.62 -3 100 C-13.89 100 -24.78 100 -36 100 C-36 97.69 -36 95.38 -36 93 C-33.24921116 92.08307039 -31.64051087 91.89113917 -28.8125 91.9375 C-27.554375 91.958125 -26.29625 91.97875 -25 92 C-24.87109375 90.74832031 -24.7421875 89.49664062 -24.609375 88.20703125 C-23.99329508 82.67200555 -23.1248124 77.18656815 -22.25 71.6875 C-20.97710251 63.58887693 -19.77422526 55.48508639 -18.66015625 47.36328125 C-18.54793732 46.54590988 -18.43571838 45.72853851 -18.32009888 44.88639832 C-17.76207232 40.81132605 -17.20978499 36.73554216 -16.66308594 32.65893555 C-16.45905085 31.15803133 -16.25495232 29.65713573 -16.05078125 28.15625 C-15.91350365 27.11426201 -15.91350365 27.11426201 -15.77345276 26.05122375 C-15.11311838 21.22623675 -15.11311838 21.22623675 -14 19 C-13.77377919 17.29636178 -13.59111527 15.58671299 -13.4375 13.875 C-13.293125 12.26625 -13.14875 10.6575 -13 9 C-16.63 9 -20.26 9 -24 9 C-24.04241723 6.66705225 -24.04092937 4.33297433 -24 2 C-21.92590473 -0.07409527 -17.67897335 0.58284902 -14.8125 0.4375 C-14.05646484 0.39431641 -13.30042969 0.35113281 -12.52148438 0.30664062 C-8.34238451 0.07829432 -4.18700014 -0.04674482 0 0 Z " fill="#5CB5DD" transform="translate(688,101)"/>
<path d="M0 0 C0.33 0.66 0.66 1.32 1 2 C0.1494824 4.34191819 -0.75990474 6.59289954 -1.75 8.875 C-4.17369952 14.65571461 -5.95546679 20.30799473 -7.359375 26.4296875 C-8.37595227 30.50839387 -10.14219171 34.19145418 -11.9375 37.9765625 C-18.59842443 53.11975789 -20.17922586 70.15837947 -20.0625 86.5 C-20.05798828 87.70398438 -20.05347656 88.90796875 -20.04882812 90.1484375 C-20.0371195 93.09901073 -20.02071995 96.04947859 -20 99 C-19.34 99 -18.68 99 -18 99 C-17.01 102.96 -16.02 106.92 -15 111 C-14.34 111 -13.68 111 -13 111 C-11.98648336 112.65848177 -10.98879205 114.32665961 -10 116 C-9.360625 116.639375 -8.72125 117.27875 -8.0625 117.9375 C-6 120 -6 120 -4.125 123 C-1.1588742 127.18747171 2.15723529 129.3857451 7 131 C7 131.66 7 132.32 7 133 C11.68506726 134.83492997 15.88312807 135.29195496 20.85873413 135.2784729 C21.63156852 135.2842653 22.40440292 135.2900577 23.20065653 135.29602563 C25.78013541 135.31297782 28.35943484 135.31589799 30.93896484 135.31884766 C32.79204749 135.32814913 34.64512595 135.33831813 36.49819946 135.34928894 C41.52246845 135.3765782 46.54670941 135.39173521 51.571033 135.40471697 C56.82413158 135.42035216 62.07717298 135.44714116 67.33023071 135.4727478 C77.274813 135.51952867 87.21940605 135.55627616 97.16404212 135.58942068 C108.48685488 135.62764692 119.80961019 135.67705579 131.13237453 135.72740483 C154.42154044 135.83071441 177.71074325 135.91997802 201 136 C201 136.33 201 136.66 201 137 C176.52071732 137.09367483 152.04146173 137.16409229 127.56203556 137.20724869 C116.19437205 137.22782458 104.82682028 137.25584957 93.45922852 137.30175781 C83.54474016 137.34177839 73.63033278 137.3674689 63.71576589 137.37635398 C58.47195398 137.38154306 53.2283736 137.39363435 47.98463631 137.42292023 C43.0360407 137.45033047 38.08776917 137.45839394 33.13910484 137.45243073 C31.33532568 137.45351963 29.53153422 137.46131946 27.72782135 137.4768219 C10.7578701 137.61536121 -4.87046341 135.49103425 -19.25 125.8125 C-27.22098225 117.66035907 -31.33959665 107.47534296 -31.41674805 96.14746094 C-31.40297119 95.23254883 -31.38919434 94.31763672 -31.375 93.375 C-31.36702393 92.41368164 -31.35904785 91.45236328 -31.35083008 90.46191406 C-31.19027282 82.35140147 -30.09605618 74.8554032 -28 67 C-27.76023437 66.08089844 -27.52046875 65.16179687 -27.2734375 64.21484375 C-25.88924181 59.29410411 -24.10127 54.58873713 -22.15234375 49.8671875 C-21.04031489 47.10030891 -20.0069377 44.31100416 -18.98583984 41.50952148 C-13.72799111 27.15074479 -7.5275144 13.3142911 0 0 Z " fill="#6AADD1" transform="translate(523,93)"/>
<path d="M0 0 C1.7082007 7.16305493 3.2740264 14.30980414 4.52734375 21.56640625 C5.00937543 24.25406531 5.00937543 24.25406531 6.125 27.8125 C7.00761891 31.0277546 7.16174668 33.68419311 7 37 C1.68123328 33.26554677 -2.81108757 29.29871787 -7.140625 24.44140625 C-8.87043491 22.75685425 -8.87043491 22.75685425 -10.96557617 23.20825195 C-13.42975885 24.16725164 -14.03931512 24.99368296 -15.41015625 27.2265625 C-15.8373999 27.9175 -16.26464355 28.6084375 -16.70483398 29.3203125 C-17.37687866 30.46113281 -17.37687866 30.46113281 -18.0625 31.625 C-18.5356665 32.41390625 -19.00883301 33.2028125 -19.49633789 34.015625 C-27.6936897 47.99019671 -34.58922462 62.87036769 -40.125 78.09375 C-40.41375 78.8878125 -40.7025 79.681875 -41 80.5 C-41.28875 81.3146875 -41.5775 82.129375 -41.875 82.96875 C-43.23096454 85.4170193 -44.42752534 86.01388471 -47 87 C-47.33 86.34 -47.66 85.68 -48 85 C-48.99 84.34 -49.98 83.68 -51 83 C-48.69 78.38 -46.38 73.76 -44 69 C-43.34 69 -42.68 69 -42 69 C-41.9175 68.34 -41.835 67.68 -41.75 67 C-39.79007524 59.16030097 -34.75793547 51.96947586 -30.6875 45.0625 C-30.14416016 44.12470703 -29.60082031 43.18691406 -29.04101562 42.22070312 C-25.44172783 36.10573839 -21.50049487 30.48553444 -17 25 C-17.67579102 25.35304199 -18.35158203 25.70608398 -19.04785156 26.06982422 C-22.11504654 27.6719094 -25.18252015 29.27346034 -28.25 30.875 C-29.31347656 31.43058594 -30.37695312 31.98617187 -31.47265625 32.55859375 C-32.49746094 33.09355469 -33.52226562 33.62851563 -34.578125 34.1796875 C-35.52075195 34.67194824 -36.46337891 35.16420898 -37.43457031 35.67138672 C-38.28116211 36.1098291 -39.12775391 36.54827148 -40 37 C-40.70995117 37.40879395 -41.41990234 37.81758789 -42.15136719 38.23876953 C-44 39 -44 39 -47 38 C-42.98439347 34.54277663 -38.9630885 31.09239612 -34.93359375 27.65136719 C-33.68534275 26.5853104 -32.43788822 25.51831999 -31.19140625 24.45019531 C-29.54863253 23.04489738 -27.90029925 21.6464465 -26.25 20.25 C-25.28578125 19.43015625 -24.3215625 18.6103125 -23.328125 17.765625 C-21 16 -21 16 -19 16 C-19 15.34 -19 14.68 -19 14 C-17.53190495 12.68846237 -15.99804216 11.45005925 -14.4375 10.25 C-11.21144125 7.74236852 -8.05533462 5.21298211 -5 2.5 C-2 0 -2 0 0 0 Z " fill="#6FBFE6" transform="translate(539,59)"/>
<path d="M0 0 C3.3 0 6.6 0 10 0 C9.69951084 4.10995945 9.32554824 8.20995532 8.9375 12.3125 C8.85306641 13.47974609 8.76863281 14.64699219 8.68164062 15.84960938 C8.35879315 19.05041153 7.99040114 21.93805074 7 25 C3.734375 27.21875 3.734375 27.21875 0 28 C-0.93199219 28.24105469 -1.86398437 28.48210937 -2.82421875 28.73046875 C-17.06965906 31.00429756 -33.12800637 32.6566169 -46 25 C-50.3872729 21.76370919 -54.13947931 18.59338448 -55 13 C-55 12.01 -55 11.02 -55 10 C-54.67 10.66 -54.34 11.32 -54 12 C-52.35 12 -50.7 12 -49 12 C-48.67 10.68 -48.34 9.36 -48 8 C-42.93448195 9.2958302 -40.56424697 11.25297114 -37 15 C-32.06052446 18.37330037 -28.28465444 19.12917369 -22.359375 19.09765625 C-21.28945313 19.09443359 -20.21953125 19.09121094 -19.1171875 19.08789062 C-18.00601563 19.07951172 -16.89484375 19.07113281 -15.75 19.0625 C-14.62335937 19.05798828 -13.49671875 19.05347656 -12.3359375 19.04882812 C-9.55723783 19.03705397 -6.77864591 19.0206084 -4 19 C-3.91890991 18.00637451 -3.91890991 18.00637451 -3.83618164 16.99267578 C-3.28864845 10.85828655 -2.14366384 5.77857209 0 0 Z " fill="#5BB2DD" transform="translate(569,172)"/>
<path d="M0 0 C-0.04382813 1.15757812 -0.08765625 2.31515625 -0.1328125 3.5078125 C-0.42596643 11.99883891 -0.42596643 11.99883891 2.90625 19.46484375 C8.87215116 23.32568801 15.06673452 24.15394155 22 23 C27.0667963 21.59146976 31.61613804 19.92257464 36 17 C36.99 17 37.98 17 39 17 C41 20 41 20 40.859375 22.02734375 C39.7590782 24.55302503 38.62619442 25.20914115 36.25 26.5625 C35.528125 26.98144531 34.80625 27.40039062 34.0625 27.83203125 C33.381875 28.21746094 32.70125 28.60289062 32 29 C31.0925 29.5775 30.185 30.155 29.25 30.75 C22.38169542 34.56572477 11.89009907 33.91464298 4.34765625 32.50390625 C-2.04139776 30.33334472 -5.98487765 25.87155405 -9 20 C-9 19.34 -9 18.68 -9 18 C-9.66 18 -10.32 18 -11 18 C-11 12.72 -11 7.44 -11 2 C-10.34 2 -9.68 2 -9 2 C-9 1.01 -9 0.02 -9 -1 C-5.34361463 -2.3542168 -3.48672608 -1.51496224 0 0 Z " fill="#52AEDB" transform="translate(603,169)"/>
<path d="M0 0 C6.93 0 13.86 0 21 0 C21 0.33 21 0.66 21 1 C14.4 1 7.8 1 1 1 C1 23.44 1 45.88 1 69 C7.3953888 67.54375781 7.3953888 67.54375781 11.2734375 63.77734375 C11.78777344 63.15666016 12.30210937 62.53597656 12.83203125 61.89648438 C13.34121094 61.25001953 13.85039062 60.60355469 14.375 59.9375 C14.90738281 59.28716797 15.43976563 58.63683594 15.98828125 57.96679688 C17.33565523 56.31943505 18.66899102 54.66061215 20 53 C20.33 52.67 20.66 52.34 21 52 C21.10917359 50.29024015 21.1558395 48.57640703 21.17578125 46.86328125 C21.19962891 45.81076172 21.22347656 44.75824219 21.24804688 43.67382812 C21.2906375 41.45266245 21.3220912 39.2312522 21.34179688 37.00976562 C21.50680573 30.70489237 21.79281871 26.80707956 26 22 C26.66 21.21625 27.32 20.4325 28 19.625 C32.77218516 17.04006637 37.68550652 17.69486162 43 18 C40.46092764 26.88675326 36.248667 34.83645825 32 43 C31.55398438 43.87269531 31.10796875 44.74539062 30.6484375 45.64453125 C25.96800126 54.48004863 19.81516219 62.69804051 13 70 C12.34 70 11.68 70 11 70 C10.67 70.99 10.34 71.98 10 73 C9.67 71.68 9.34 70.36 9 69 C8.34 69 7.68 69 7 69 C7 69.66 7 70.32 7 71 C5.00045254 71.04254356 2.99958364 71.04080783 1 71 C0 70 0 70 -0.12025452 67.22227478 C-0.11803391 65.98095291 -0.11581329 64.73963104 -0.11352539 63.46069336 C-0.11367142 62.77779739 -0.11381744 62.09490143 -0.1139679 61.39131165 C-0.11326876 59.12412386 -0.1054764 56.85701726 -0.09765625 54.58984375 C-0.09579207 53.02185613 -0.09436817 51.45386793 -0.09336853 49.88587952 C-0.08954334 45.75123497 -0.07971306 41.61662534 -0.06866455 37.48199463 C-0.05845044 33.26599602 -0.05387091 29.04999178 -0.04882812 24.83398438 C-0.03809078 16.55597174 -0.02049399 8.27799423 0 0 Z " fill="#F9FCFB" transform="translate(442,131)"/>
<path d="M0 0 C1.9375 1.5625 1.9375 1.5625 2.9375 2.5625 C3.5126634 9.46446078 3.5126634 9.46446078 1.5625 13.1875 C-7.27871176 21.18669159 -19.1077887 25.5625 -31.0625 25.5625 C-31.91239188 17.74349474 -28.40548979 12.03919453 -24.125 5.6875 C-17.65146444 -0.9822033 -8.73635783 -4.10073939 0 0 Z " fill="#F9FCFC" transform="translate(635.0625,141.4375)"/>
<path d="M0 0 C0 6.27 0 12.54 0 19 C-3.25520833 19.22786458 -6.51041667 19.45572917 -9.765625 19.68359375 C-12.30977376 19.93247787 -14.55953248 20.28114942 -17 21 C-17 20.34 -17 19.68 -17 19 C-17.66 18.67 -18.32 18.34 -19 18 C-19 16.68 -19 15.36 -19 14 C-19.66 13.34 -20.32 12.68 -21 12 C-20.67 11.34 -20.34 10.68 -20 10 C-20.66 10 -21.32 10 -22 10 C-22.33 11.32 -22.66 12.64 -23 14 C-23.99 14 -24.98 14 -26 14 C-26.33 11.36 -26.66 8.72 -27 6 C-28.32 6 -29.64 6 -31 6 C-31.33 5.01 -31.66 4.02 -32 3 C-36.29 2.67 -40.58 2.34 -45 2 C-45 24.44 -45 46.88 -45 70 C-38.4 70 -31.8 70 -25 70 C-25 57.79 -25 45.58 -25 33 C-24.67 33 -24.34 33 -24 33 C-24 45.54 -24 58.08 -24 71 C-31.26 71 -38.52 71 -46 71 C-46 47.9 -46 24.8 -46 1 C-39.07 1 -32.14 1 -25 1 C-24.67 4.3 -24.34 7.6 -24 11 C-23.484375 10.0925 -22.96875 9.185 -22.4375 8.25 C-19.50633773 3.85325659 -15.60698578 1.80214947 -10.5625 0.25 C-7.0573225 -0.09196854 -3.52181939 0 0 0 Z " fill="#3E6088" transform="translate(277,130)"/>
<path d="M0 0 C4.58984375 0.09765625 4.58984375 0.09765625 9.1796875 0.1953125 C9.1796875 4.4853125 9.1796875 8.7753125 9.1796875 13.1953125 C10.4996875 13.5253125 11.8196875 13.8553125 13.1796875 14.1953125 C13.5096875 14.5253125 13.8396875 14.8553125 14.1796875 15.1953125 C14.8396875 14.5353125 15.4996875 13.8753125 16.1796875 13.1953125 C14.97637398 19.44775166 13.20439711 25.18011618 10.8046875 31.0703125 C10.1760708 32.64542962 9.54846334 34.2209499 8.921875 35.796875 C8.62120117 36.55000977 8.32052734 37.30314453 8.01074219 38.07910156 C6.92372725 40.84709377 5.92057137 43.64164883 4.9296875 46.4453125 C3.58953814 50.18632517 2.02306379 53.66885351 0.1796875 57.1953125 C-0.85278683 59.51601169 -1.83665169 61.85326296 -2.8203125 64.1953125 C-3.1503125 64.1953125 -3.4803125 64.1953125 -3.8203125 64.1953125 C-4.1503125 62.5453125 -4.4803125 60.8953125 -4.8203125 59.1953125 C-6.1403125 58.8653125 -7.4603125 58.5353125 -8.8203125 58.1953125 C-9.1503125 58.8553125 -9.4803125 59.5153125 -9.8203125 60.1953125 C-11.1328125 57.6953125 -11.1328125 57.6953125 -11.8203125 54.1953125 C-9.9453125 50.8203125 -9.9453125 50.8203125 -8.51953125 48.79296875 C-6.30891426 45.41351979 -4.54438865 41.87513952 -2.7578125 38.2578125 C-2.41177979 37.55978516 -2.06574707 36.86175781 -1.70922852 36.14257812 C0.71648387 31.2134842 3.00491962 26.24077398 5.1796875 21.1953125 C5.5096875 20.5353125 5.8396875 19.8753125 6.1796875 19.1953125 C2.8796875 19.1953125 -0.4203125 19.1953125 -3.8203125 19.1953125 C-3.8203125 18.8653125 -3.8203125 18.5353125 -3.8203125 18.1953125 C0.1396875 18.1953125 4.0996875 18.1953125 8.1796875 18.1953125 C8.1796875 12.5853125 8.1796875 6.9753125 8.1796875 1.1953125 C1.7446875 1.6903125 1.7446875 1.6903125 -4.8203125 2.1953125 C-2.8203125 0.1953125 -2.8203125 0.1953125 0 0 Z " fill="#5FB0D5" transform="translate(478.8203125,129.8046875)"/>
<path d="M0 0 C0.83144531 0.00451172 1.66289063 0.00902344 2.51953125 0.01367188 C4.55471897 0.02536836 6.58986923 0.04330065 8.625 0.0625 C7.965 5.0125 7.305 9.9625 6.625 15.0625 C5.305 15.3925 3.985 15.7225 2.625 16.0625 C2.295 17.7125 1.965 19.3625 1.625 21.0625 C0.965 20.4025 0.305 19.7425 -0.375 19.0625 C-1.6143156 21.13774672 -1.6143156 21.13774672 -1.25 24.0625 C-1.29125 25.0525 -1.3325 26.0425 -1.375 27.0625 C-2.365 27.7225 -3.355 28.3825 -4.375 29.0625 C-5.10465366 31.62532742 -5.10465366 31.62532742 -5.375 34.0625 C-6.035 34.0625 -6.695 34.0625 -7.375 34.0625 C-7.705 36.3725 -8.035 38.6825 -8.375 41.0625 C-9.6183165 37.42163549 -9.18379753 34.53113867 -8.59765625 30.765625 C-8.32211914 28.95771484 -8.32211914 28.95771484 -8.04101562 27.11328125 C-7.84185547 25.85902344 -7.64269531 24.60476562 -7.4375 23.3125 C-7.24220703 22.04277344 -7.04691406 20.77304688 -6.84570312 19.46484375 C-6.36244782 16.32957764 -5.87195348 13.1956191 -5.375 10.0625 C-8.675 9.7325 -11.975 9.4025 -15.375 9.0625 C-16.30038169 5.36097322 -16.45674162 4.42791838 -15.375 1.0625 C-10.20182579 -0.00059567 -5.25130664 -0.05443938 0 0 Z " fill="#5DB5DF" transform="translate(720.375,100.9375)"/>
<path d="M0 0 C0.33 0.66 0.66 1.32 1 2 C0.1494824 4.34191819 -0.75990474 6.59289954 -1.75 8.875 C-4.17369952 14.65571461 -5.95546679 20.30799473 -7.359375 26.4296875 C-8.37595227 30.50839387 -10.14219171 34.19145418 -11.9375 37.9765625 C-16.7462648 48.90898872 -18.66232764 61.19065006 -20 73 C-20.33 73 -20.66 73 -21 73 C-21.495 70.525 -21.495 70.525 -22 68 C-25.53790403 71.69172595 -25.59115883 75.09390595 -26 80 C-27.485 80.495 -27.485 80.495 -29 81 C-29.33 88.59 -29.66 96.18 -30 104 C-30.33 104 -30.66 104 -31 104 C-31.3405678 91.25577812 -31.30760836 79.39594508 -28 67 C-27.76023437 66.08089844 -27.52046875 65.16179687 -27.2734375 64.21484375 C-25.88924181 59.29410411 -24.10127 54.58873713 -22.15234375 49.8671875 C-21.04031489 47.10030891 -20.0069377 44.31100416 -18.98583984 41.50952148 C-13.72799111 27.15074479 -7.5275144 13.3142911 0 0 Z " fill="#6CBFE0" transform="translate(523,93)"/>
<path d="M0 0 C0.31326883 4.54239804 0.42735216 7.1111075 -1.5625 11.25 C-5.39899364 15.5783518 -9.18546209 18.14672485 -15.0625 18.5625 C-20.15453766 17.83506605 -21.64616285 16.85691272 -25 13 C-25.6875 10 -25.6875 10 -25 7 C-22.10125726 3.01422873 -19.24223679 1.2635208 -14.40234375 0.26953125 C-9.61185897 -0.26793777 -4.81128969 -0.14433869 0 0 Z " fill="#EBEEF1" transform="translate(193,170)"/>
<path d="M0 0 C0 5.61 0 11.22 0 17 C-1.815 17.061875 -3.63 17.12375 -5.5 17.1875 C-11.4972715 17.65648095 -15.33234952 19.279608 -20 23 C-21.13330997 19.24092256 -20.65120922 17.57761997 -19 14 C-18.67 13.01 -18.34 12.02 -18 11 C-18.66 11 -19.32 11 -20 11 C-20 11.66 -20 12.32 -20 13 C-21.32 12.67 -22.64 12.34 -24 12 C-23.34 12 -22.68 12 -22 12 C-21.95875 11.29875 -21.9175 10.5975 -21.875 9.875 C-20.63969258 5.81613275 -18.38808991 3.49732449 -15 1 C-10.17656031 -0.50062568 -5.01926466 -0.07604946 0 0 Z " fill="#286596" transform="translate(487,131)"/>
<path d="M0 0 C2.79685574 2.13444254 3.56477827 3.40956875 4.375 6.8125 C4.375 8.4625 4.375 10.1125 4.375 11.8125 C-4.865 11.8125 -14.105 11.8125 -23.625 11.8125 C-22.42198905 3.39142336 -22.42198905 3.39142336 -17.921875 -0.0859375 C-12.22755702 -2.81688592 -5.81725432 -1.90565228 0 0 Z " fill="#F3F7F8" transform="translate(404.625,147.1875)"/>
<path d="M0 0 C4.0643069 2.04656589 6.10581424 3.81285254 8 8 C8 9.65 8 11.3 8 13 C-1.24 13 -10.48 13 -20 13 C-18.79765963 4.58361739 -18.79765963 4.58361739 -14.30078125 1.1015625 C-9.78225904 -1.06180467 -4.85551472 -0.8533534 0 0 Z " fill="#F3F7F8" transform="translate(323,146)"/>
<path d="M0 0 C0.66 0.66 1.32 1.32 2 2 C2.33 1.34 2.66 0.68 3 0 C3.66 0.33 4.32 0.66 5 1 C3.35 4.3 1.7 7.6 0 11 C-0.66 11 -1.32 11 -2 11 C-10.12443388 27.78239972 -17.9810749 44.29460138 -23.703125 62.06640625 C-24.68391952 65.098672 -25.76561262 68.0595961 -27 71 C-27.33 71 -27.66 71 -28 71 C-28 68 -28 65 -28 62 C-28.99 62.495 -28.99 62.495 -30 63 C-28.49137546 57.42266079 -26.79055692 52.31974137 -24.078125 47.21875 C-22.80544257 44.59960644 -21.85793852 41.92865249 -20.875 39.1875 C-15.64942084 25.34373491 -7.98138297 12.41796178 0 0 Z " fill="#E9F5F9" transform="translate(525,83)"/>
<path d="M0 0 C0.99 0 1.98 0 3 0 C2.46216014 5.11738812 0.64056884 9.08644858 -1.75 13.5625 C-4.89851257 19.634832 -7.54236955 25.7227268 -9.91015625 32.1484375 C-14.59007353 44.39338235 -14.59007353 44.39338235 -20 48 C-20.33 47.34 -20.66 46.68 -21 46 C-21.99 45.34 -22.98 44.68 -24 44 C-20.535 37.07 -20.535 37.07 -17 30 C-16.34 30 -15.68 30 -15 30 C-14.9175 29.34 -14.835 28.68 -14.75 28 C-12.96456389 20.85825556 -8.597172 14.33172637 -4.9375 8 C-4.50373047 7.22527344 -4.06996094 6.45054688 -3.62304688 5.65234375 C-3.19958984 4.92144531 -2.77613281 4.19054687 -2.33984375 3.4375 C-1.96206787 2.77621094 -1.58429199 2.11492187 -1.19506836 1.43359375 C-0.8006958 0.96050781 -0.40632324 0.48742187 0 0 Z " fill="#6CBBDD" transform="translate(512,98)"/>
<path d="M0 0 C6.93 0 13.86 0 21 0 C21 0.33 21 0.66 21 1 C14.4 1 7.8 1 1 1 C1 23.44 1 45.88 1 69 C7.3953888 67.54375781 7.3953888 67.54375781 11.2734375 63.77734375 C11.78777344 63.15666016 12.30210937 62.53597656 12.83203125 61.89648438 C13.34121094 61.25001953 13.85039062 60.60355469 14.375 59.9375 C14.90738281 59.28716797 15.43976563 58.63683594 15.98828125 57.96679688 C17.33565523 56.31943505 18.66899102 54.66061215 20 53 C20.33 52.67 20.66 52.34 21 52 C21.13340015 50.2440337 21.20343476 48.48316568 21.24609375 46.72265625 C21.27896484 45.65208984 21.31183594 44.58152344 21.34570312 43.47851562 C21.40679341 41.20517703 21.46409864 38.9317335 21.51757812 36.65820312 C21.55173828 35.58634766 21.58589844 34.51449219 21.62109375 33.41015625 C21.6461499 32.42152588 21.67120605 31.43289551 21.69702148 30.41430664 C22 28 22 28 24 26 C24.10566609 30.33925122 24.14303676 34.67264092 24.12207031 39.01269531 C24.12399548 40.48288024 24.14332968 41.95316463 24.18164062 43.42285156 C24.44532032 54.16047455 22.72489258 60.0225989 15.34326172 67.96386719 C13 70 13 70 11 70 C10.67 70.99 10.34 71.98 10 73 C9.67 71.68 9.34 70.36 9 69 C8.34 69 7.68 69 7 69 C7 69.66 7 70.32 7 71 C5.00045254 71.04254356 2.99958364 71.04080783 1 71 C0 70 0 70 -0.12025452 67.22227478 C-0.11803391 65.98095291 -0.11581329 64.73963104 -0.11352539 63.46069336 C-0.11367142 62.77779739 -0.11381744 62.09490143 -0.1139679 61.39131165 C-0.11326876 59.12412386 -0.1054764 56.85701726 -0.09765625 54.58984375 C-0.09579207 53.02185613 -0.09436817 51.45386793 -0.09336853 49.88587952 C-0.08954334 45.75123497 -0.07971306 41.61662534 -0.06866455 37.48199463 C-0.05845044 33.26599602 -0.05387091 29.04999178 -0.04882812 24.83398438 C-0.03809078 16.55597174 -0.02049399 8.27799423 0 0 Z " fill="#BACEDB" transform="translate(442,131)"/>
<path d="M0 0 C2.12890625 0.484375 2.12890625 0.484375 4.69140625 2.609375 C6.37208275 5.97072801 6.75959917 7.77905407 6.12890625 11.484375 C3.47702423 14.75502949 1.50710456 16.30061522 -2.68359375 16.859375 C-5.87109375 16.484375 -5.87109375 16.484375 -8.74609375 14.359375 C-10.87109375 11.484375 -10.87109375 11.484375 -11.43359375 8.484375 C-10.12980927 1.53085777 -6.69784769 -0.39723644 0 0 Z " fill="#74C1E2" transform="translate(483.87109375,106.515625)"/>
<path d="M0 0 C0.66 0.33 1.32 0.66 2 1 C1.51789063 1.53109375 1.03578125 2.0621875 0.5390625 2.609375 C-0.09257812 3.31578125 -0.72421875 4.0221875 -1.375 4.75 C-2.00148438 5.44609375 -2.62796875 6.1421875 -3.2734375 6.859375 C-4.87505183 8.84508688 -5.96520068 10.67954093 -7 13 C-8.32 13 -9.64 13 -11 13 C-11.23332031 13.58523437 -11.46664063 14.17046875 -11.70703125 14.7734375 C-14.73899632 19.99464623 -21.39452862 23.808593 -27.125 25.4375 C-28.07375 25.623125 -29.0225 25.80875 -30 26 C-30 25.34 -30 24.68 -30 24 C-30.99 23.67 -31.98 23.34 -33 23 C-33.33 22.34 -33.66 21.68 -34 21 C-36.01669827 19.86649466 -36.01669827 19.86649466 -38 19 C-37.27296875 18.84144531 -36.5459375 18.68289062 -35.796875 18.51953125 C-22.03653314 15.32642628 -9.93562195 10.31949825 0 0 Z " fill="#235283" transform="translate(456,199)"/>
<path d="M0 0 C0.66 0 1.32 0 2 0 C2 0.99 2 1.98 2 3 C3.98 3 5.96 3 8 3 C8 6.3 8 9.6 8 13 C7.34 13 6.68 13 6 13 C6.061875 13.845625 6.12375 14.69125 6.1875 15.5625 C5.95984372 19.73619843 4.79792186 22.25432947 3 26 C2.01 24.68 1.02 23.36 0 22 C-0.66 22.33 -1.32 22.66 -2 23 C-3.24865786 15.3730628 -2.80920127 8.52181624 -1 1 C-0.67 0.67 -0.34 0.34 0 0 Z " fill="#54AEDA" transform="translate(669,165)"/>
<path d="M0 0 C0 1.65 0 3.3 0 5 C-2.31 5 -4.62 5 -7 5 C-7 6.32 -7 7.64 -7 9 C-7.99 9.33 -8.98 9.66 -10 10 C-11.22969878 13.51190809 -11.22969878 13.51190809 -12 17 C-12.33 17 -12.66 17 -13 17 C-13 14.36 -13 11.72 -13 9 C-16.63 9 -20.26 9 -24 9 C-24.04241723 6.66705225 -24.04092937 4.33297433 -24 2 C-21.92590473 -0.07409527 -17.67897335 0.58284902 -14.8125 0.4375 C-14.05646484 0.39431641 -13.30042969 0.35113281 -12.52148438 0.30664062 C-8.34238451 0.07829432 -4.18700014 -0.04674482 0 0 Z " fill="#72C2E6" transform="translate(688,101)"/>
<path d="M0 0 C0.99 0 1.98 0 3 0 C5 3 5 3 4.859375 5.02734375 C3.7590782 7.55302503 2.62619442 8.20914115 0.25 9.5625 C-0.8328125 10.19091797 -0.8328125 10.19091797 -1.9375 10.83203125 C-2.618125 11.21746094 -3.29875 11.60289062 -4 12 C-4.9075 12.5775 -5.815 13.155 -6.75 13.75 C-11.41107887 16.33948826 -16.02931716 16.12245484 -21.25 16.0625 C-21.99507812 16.05798828 -22.74015625 16.05347656 -23.5078125 16.04882812 C-25.3385764 16.03709246 -27.16929873 16.0191585 -29 16 C-29 15.67 -29 15.34 -29 15 C-20.585 14.505 -20.585 14.505 -12 14 C-12 13.34 -12 12.68 -12 12 C-12.99 12.33 -13.98 12.66 -15 13 C-15.66 12.34 -16.32 11.68 -17 11 C-14.4345406 8.4345406 -12.52313332 8.45953913 -9 8 C-11.475 7.505 -11.475 7.505 -14 7 C-11.26845992 5.17897328 -8.91736704 4.10388853 -5.875 2.9375 C-2.68623321 1.87284184 -2.68623321 1.87284184 0 0 Z " fill="#5DB4DF" transform="translate(639,186)"/>
<path d="M0 0 C0.33 0.66 0.66 1.32 1 2 C1.66 2 2.32 2 3 2 C3 4.97 3 7.94 3 11 C5.97 11.495 5.97 11.495 9 12 C8.34 13.32 7.68 14.64 7 16 C5.68 15.67 4.36 15.34 3 15 C3 15.66 3 16.32 3 17 C-0.63 17 -4.26 17 -8 17 C-9.16028228 12.35887089 -8.65885507 10.42361351 -7 6 C-5.0625 3.5625 -5.0625 3.5625 -3 2 C-2.01 2 -1.02 2 0 2 C0 1.34 0 0.68 0 0 Z " fill="#4DA9DA" transform="translate(712,182)"/>
<path d="M0 0 C1.8125 1.5625 1.8125 1.5625 3 3 C2.34 3 1.68 3 1 3 C0.67 3.99 0.34 4.98 0 6 C-4.51147353 8.58573433 -9.73768049 8.66330874 -14.8125 9.125 C-15.69615234 9.21136719 -16.57980469 9.29773438 -17.49023438 9.38671875 C-19.65952058 9.59778444 -21.82968458 9.79979426 -24 10 C-24.1875 7.625 -24.1875 7.625 -24 5 C-20.52066202 2.68044134 -17.12183202 1.80990763 -13.125 0.8125 C-12.41730469 0.62236328 -11.70960938 0.43222656 -10.98046875 0.23632812 C-7.00737634 -0.76619333 -3.92744457 -1.32615011 0 0 Z " fill="#50B1E0" transform="translate(629,163)"/>
<path d="M0 0 C0.928125 0.20625 1.85625 0.4125 2.8125 0.625 C2.8125 2.935 2.8125 5.245 2.8125 7.625 C-8.0775 7.625 -18.9675 7.625 -30.1875 7.625 C-30.1875 5.315 -30.1875 3.005 -30.1875 0.625 C-26.5575 0.625 -22.9275 0.625 -19.1875 0.625 C-18.8575 1.945 -18.5275 3.265 -18.1875 4.625 C-14.5575 4.955 -10.9275 5.285 -7.1875 5.625 C-7.1875 4.965 -7.1875 4.305 -7.1875 3.625 C-5.8675 3.955 -4.5475 4.285 -3.1875 4.625 C-3.1875 3.965 -3.1875 3.305 -3.1875 2.625 C-4.1775 2.295 -5.1675 1.965 -6.1875 1.625 C-3.1875 -0.375 -3.1875 -0.375 0 0 Z " fill="#66B7DE" transform="translate(722.1875,193.375)"/>
<path d="M0 0 C0.33 0.66 0.66 1.32 1 2 C1.99 2 2.98 2 4 2 C4 1.34 4 0.68 4 0 C4.66 0 5.32 0 6 0 C5.67 1.98 5.34 3.96 5 6 C6.32 5.34 7.64 4.68 9 4 C9 5.65 9 7.3 9 9 C9.66 9.33 10.32 9.66 11 10 C10.67 11.65 10.34 13.3 10 15 C10.99 14.67 11.98 14.34 13 14 C14.39439664 13.93334624 15.79169875 13.91461801 17.1875 13.9375 C19.0746875 13.9684375 19.0746875 13.9684375 21 14 C17.09971775 16.60018816 13.52565431 16.15085514 9 16 C10.35225523 23.68636026 10.35225523 23.68636026 13 31 C10.5546875 29.97265625 10.5546875 29.97265625 8 28 C7.42433601 25.28226002 7.16625525 23.16292527 7.125 20.4375 C7.09148438 19.75236328 7.05796875 19.06722656 7.0234375 18.36132812 C6.82659662 13.34680676 6.82659662 13.34680676 8 11 C7.01 11.33 6.02 11.66 5 12 C4.34 11.34 3.68 10.68 3 10 C1.68 10 0.36 10 -1 10 C-1 10.99 -1 11.98 -1 13 C-1.66 13 -2.32 13 -3 13 C-3 16.63 -3 20.26 -3 24 C-3.33 24 -3.66 24 -4 24 C-4.19355213 16.34393782 -4.3479743 9.33741969 -2 2 C-1.34 2 -0.68 2 0 2 C0 1.34 0 0.68 0 0 Z " fill="#59B4DC" transform="translate(595,158)"/>
<path d="M0 0 C3.5549955 1.4219982 4.36668882 2.63730051 6 6 C9.30788152 9.76730951 12.42027164 11.9763991 17 14 C17 14.66 17 15.32 17 16 C18.32 16.66 19.64 17.32 21 18 C12.98449221 18.63840328 6.41795264 17.04294927 -1 14 C-1.33 13.67 -1.66 13.34 -2 13 C-1.72460254 10.65912158 -1.3813074 8.32597511 -1 6 C-0.814375 4.865625 -0.62875 3.73125 -0.4375 2.5625 C-0.293125 1.716875 -0.14875 0.87125 0 0 Z " fill="#55A3D1" transform="translate(513,210)"/>
<path d="M0 0 C0.66 0.99 1.32 1.98 2 3 C1.5390625 5.04296875 1.5390625 5.04296875 0.625 7.1875 C0.32851563 7.90292969 0.03203125 8.61835938 -0.2734375 9.35546875 C-0.51320313 9.89816406 -0.75296875 10.44085938 -1 11 C-0.34 11 0.32 11 1 11 C1.33 9.35 1.66 7.7 2 6 C2.93423645 9.01031744 3.04449911 9.86650268 2 13 C1.34 13 0.68 13 0 13 C-0.0093457 13.60996826 -0.01869141 14.21993652 -0.02832031 14.84838867 C-0.08221326 17.62889487 -0.16582069 20.40775262 -0.25 23.1875 C-0.26417969 24.14720703 -0.27835937 25.10691406 -0.29296875 26.09570312 C-0.49379301 31.89952437 -1.05530273 34.56221557 -5 39 C-5.69102482 42.33902191 -5.69102482 42.33902191 -5.75 45.8125 C-5.80671875 46.97394531 -5.8634375 48.13539063 -5.921875 49.33203125 C-5.96054687 50.65267578 -5.96054687 50.65267578 -6 52 C-6.33 52 -6.66 52 -7 52 C-7.50964549 33.91702303 -5.74394172 17.23182517 0 0 Z " fill="#DBEFF7" transform="translate(509,134)"/>
<path d="M0 0 C0.33 0.66 0.66 1.32 1 2 C0.1494824 4.34191819 -0.75990474 6.59289954 -1.75 8.875 C-4.17094003 14.64913301 -5.95580739 20.29346474 -7.3515625 26.41015625 C-8.21014386 29.83930953 -9.49928875 32.80283255 -11 36 C-11.67276716 37.6642135 -12.34206835 39.32986582 -13 41 C-13.99 40.34 -14.98 39.68 -16 39 C-16.99 41.64 -17.98 44.28 -19 47 C-20.11281815 42.54872742 -19.84591099 41.87485469 -18.0625 37.875 C-17.59714844 36.81925781 -17.13179688 35.76351562 -16.65234375 34.67578125 C-16.38921387 34.0926416 -16.12608398 33.50950195 -15.85498047 32.90869141 C-14.92678229 30.83654595 -14.0267364 28.75344367 -13.12890625 26.66796875 C-9.16549475 17.52388897 -4.90625735 8.67794268 0 0 Z " fill="#89CDE5" transform="translate(523,93)"/>
<path d="M0 0 C0.33 0.66 0.66 1.32 1 2 C1.99 2 2.98 2 4 2 C3.67210504 9.869479 -0.49394464 14.6587966 -6 20 C-6.14050781 19.43539062 -6.28101563 18.87078125 -6.42578125 18.2890625 C-6.80921832 16.76053106 -7.20249582 15.23443517 -7.60546875 13.7109375 C-7.79753906 12.94007812 -7.98960937 12.16921875 -8.1875 11.375 C-8.38730469 10.59898438 -8.58710937 9.82296875 -8.79296875 9.0234375 C-8.86128906 8.35570313 -8.92960938 7.68796875 -9 7 C-8.34 6.34 -7.68 5.68 -7 5 C-6.01 5.33 -5.02 5.66 -4 6 C-3.34 4.68 -2.68 3.36 -2 2 C-1.34 2 -0.68 2 0 2 C0 1.34 0 0.68 0 0 Z " fill="#65BDE4" transform="translate(532,115)"/>
<path d="M0 0 C0 6.27 0 12.54 0 19 C-3.25520833 19.22786458 -6.51041667 19.45572917 -9.765625 19.68359375 C-12.30977376 19.93247787 -14.55953248 20.28114942 -17 21 C-17 20.34 -17 19.68 -17 19 C-17.66 18.67 -18.32 18.34 -19 18 C-17.35 17.67 -15.7 17.34 -14 17 C-13.67 16.01 -13.34 15.02 -13 14 C-12.01 15.485 -12.01 15.485 -11 17 C-8.56306689 17.36416047 -8.56306689 17.36416047 -5.875 17.1875 C-3.461875 17.0946875 -3.461875 17.0946875 -1 17 C-1 11.72 -1 6.44 -1 1 C-2.32 1 -3.64 1 -5 1 C-5 1.66 -5 2.32 -5 3 C-7.69900463 4.68687789 -9.95015401 5.16237549 -13.0625 5.4375 C-17.32840627 6.04627602 -17.32840627 6.04627602 -20 9 C-20.66 9 -21.32 9 -22 9 C-20.74660576 5.10055126 -18.32875127 3.67365036 -14.7890625 1.81640625 C-9.76305044 -0.47712327 -5.69296195 0 0 0 Z " fill="#2A507A" transform="translate(277,130)"/>
<path d="M0 0 C6 2 12 4 18 6 C18 6.66 18 7.32 18 8 C18.66 8.33 19.32 8.66 20 9 C20 9.99 20 10.98 20 12 C21.32 12.33 22.64 12.66 24 13 C24 13.66 24 14.32 24 15 C20.05272412 15.17942163 17.4019487 15.09350689 14 13 C14 12.34 14 11.68 14 11 C13.278125 10.9175 12.55625 10.835 11.8125 10.75 C5.89091933 9.17091182 3.09305838 5.04053958 0 0 Z " fill="#235483" transform="translate(516,213)"/>
<path d="M0 0 C4.58984375 0.09765625 4.58984375 0.09765625 9.1796875 0.1953125 C9.1796875 4.4853125 9.1796875 8.7753125 9.1796875 13.1953125 C10.4996875 13.5253125 11.8196875 13.8553125 13.1796875 14.1953125 C13.5096875 14.5253125 13.8396875 14.8553125 14.1796875 15.1953125 C14.8396875 14.5353125 15.4996875 13.8753125 16.1796875 13.1953125 C15.89486382 14.61337081 15.60150606 16.02971629 15.3046875 17.4453125 C15.14226562 18.23421875 14.97984375 19.023125 14.8125 19.8359375 C14.18818675 22.16362394 13.33130208 24.08563202 12.1796875 26.1953125 C11.5196875 26.1953125 10.8596875 26.1953125 10.1796875 26.1953125 C9.1796875 23.1953125 9.1796875 23.1953125 8.1796875 19.1953125 C4.2196875 19.1953125 0.2596875 19.1953125 -3.8203125 19.1953125 C-3.8203125 18.8653125 -3.8203125 18.5353125 -3.8203125 18.1953125 C0.1396875 18.1953125 4.0996875 18.1953125 8.1796875 18.1953125 C8.1796875 12.5853125 8.1796875 6.9753125 8.1796875 1.1953125 C1.7446875 1.6903125 1.7446875 1.6903125 -4.8203125 2.1953125 C-2.8203125 0.1953125 -2.8203125 0.1953125 0 0 Z " fill="#57A4CA" transform="translate(478.8203125,129.8046875)"/>
<path d="M0 0 C0.66 0.66 1.32 1.32 2 2 C2.33 1.34 2.66 0.68 3 0 C3.66 0.33 4.32 0.66 5 1 C3.35 4.3 1.7 7.6 0 11 C-0.66 11 -1.32 11 -2 11 C-4.31 15.62 -6.62 20.24 -9 25 C-9.33 24.34 -9.66 23.68 -10 23 C-10.99 23.33 -11.98 23.66 -13 24 C-11.45196735 18.23684231 -8.51721614 13.62543026 -5.375 8.625 C-4.859375 7.79355469 -4.34375 6.96210937 -3.8125 6.10546875 C-2.54713205 4.06682038 -1.27621134 2.03187118 0 0 Z " fill="#E7F4FA" transform="translate(525,83)"/>
<path d="M0 0 C1.74216797 0.02707031 1.74216797 0.02707031 3.51953125 0.0546875 C4.39996094 0.07789063 5.28039062 0.10109375 6.1875 0.125 C6.1875 1.115 6.1875 2.105 6.1875 3.125 C5.1975 3.125 4.2075 3.125 3.1875 3.125 C3.1875 4.445 3.1875 5.765 3.1875 7.125 C1.22946493 7.17889087 -0.72898909 7.21774217 -2.6875 7.25 C-3.77804687 7.27320313 -4.86859375 7.29640625 -5.9921875 7.3203125 C-8.8125 7.125 -8.8125 7.125 -10.8125 5.125 C-10.4825 4.465 -10.1525 3.805 -9.8125 3.125 C-10.4725 2.795 -11.1325 2.465 -11.8125 2.125 C-7.73526266 0.17468308 -4.49557578 -0.09081971 0 0 Z " fill="#55B1DF" transform="translate(629.8125,131.875)"/>
<path d="M0 0 C4 4 4 4 4 7 C0.93753253 8.78409802 -1.22079273 9.22880021 -4.75 9.125 C-5.54921875 9.10695312 -6.3484375 9.08890625 -7.171875 9.0703125 C-7.77515625 9.04710937 -8.3784375 9.02390625 -9 9 C-8.67 8.34 -8.34 7.68 -8 7 C-7.34 7 -6.68 7 -6 7 C-7.7058258 4.22880216 -7.7058258 4.22880216 -9 3 C-10.51469448 2.76807135 -12.03754562 2.58784762 -13.5625 2.4375 C-14.38878906 2.35371094 -15.21507812 2.26992187 -16.06640625 2.18359375 C-16.70449219 2.12300781 -17.34257812 2.06242188 -18 2 C-18 1.67 -18 1.34 -18 1 C-16.12528812 0.83012319 -14.25021305 0.66425224 -12.375 0.5 C-11.33085937 0.4071875 -10.28671875 0.314375 -9.2109375 0.21875 C-6.10755066 0.00732705 -3.10690629 -0.17804621 0 0 Z " fill="#20507D" transform="translate(422,219)"/>
<path d="M0 0 C1.1446875 0.12375 1.1446875 0.12375 2.3125 0.25 C2.9725 2.23 3.6325 4.21 4.3125 6.25 C2.9925 7.57 1.6725 8.89 0.3125 10.25 C-1.9975 9.59 -4.3075 8.93 -6.6875 8.25 C-5.9168107 3.93413993 -4.72992724 0.43999323 0 0 Z " fill="#53B2E0" transform="translate(605.6875,143.75)"/>
<path d="M0 0 C0.66 0.33 1.32 0.66 2 1 C2 2.32 2 3.64 2 5 C0.34467377 6.01866229 -1.32260138 7.01810813 -3 8 C-3.87822312 10.08533633 -3.87822312 10.08533633 -4 12 C-4.66 12 -5.32 12 -6 12 C-6 13.32 -6 14.64 -6 16 C-9 18.25 -9 18.25 -12 20 C-11.51744703 15.05017633 -10.12337388 12.24992504 -7.125 8.3125 C-6.07699219 6.91451172 -6.07699219 6.91451172 -5.0078125 5.48828125 C-3.41854363 3.51870095 -1.83983469 1.72990746 0 0 Z " fill="#2A4C77" transform="translate(75,114)"/>
<path d="M0 0 C-2.19630976 1.12619287 -4.29518529 2.10542332 -6.625 2.9375 C-9.30799602 3.88458824 -9.30799602 3.88458824 -11 7 C-8.69 7.66 -6.38 8.32 -4 9 C-4 11.64 -4 14.28 -4 17 C-4.33 17 -4.66 17 -5 17 C-5 14.69 -5 12.38 -5 10 C-8.3 9.67 -11.6 9.34 -15 9 C-15.92538169 5.29847322 -16.08174162 4.36541838 -15 1 C-9.94997778 -0.03590199 -5.12583611 -0.10251672 0 0 Z " fill="#90CFE9" transform="translate(720,101)"/>
<path d="M0 0 C3.35997759 5.03996638 4.29282455 9.99709677 4 16 C-0.63720719 12.72469104 -4.68542782 9.69564393 -8 5 C-5.525 5.495 -5.525 5.495 -3 6 C-2.814375 4.7934375 -2.814375 4.7934375 -2.625 3.5625 C-2.41875 2.716875 -2.2125 1.87125 -2 1 C-1.34 0.67 -0.68 0.34 0 0 Z " fill="#89C9E8" transform="translate(542,80)"/>
<path d="M0 0 C-0.33 1.65 -0.66 3.3 -1 5 C-0.34 5.33 0.32 5.66 1 6 C-5.435 6.495 -5.435 6.495 -12 7 C-12 5.35 -12 3.7 -12 2 C-7.93192322 -0.71205119 -4.69252613 -1.56417538 0 0 Z " fill="#5DB5DF" transform="translate(617,166)"/>
<path d="M0 0 C0.33 0 0.66 0 1 0 C1.061875 0.763125 1.12375 1.52625 1.1875 2.3125 C1.76935262 5.23051809 1.76935262 5.23051809 4.5625 6.8125 C5.366875 7.204375 6.17125 7.59625 7 8 C6.34 10.31 5.68 12.62 5 15 C3 12 3 12 3 10 C0.97954558 10.60183749 -1.02111039 11.27306096 -3 12 C-3.33 12.66 -3.66 13.32 -4 14 C-4.66 14 -5.32 14 -6 14 C-4.50829734 9.0276578 -2.39542583 4.58154261 0 0 Z " fill="#68B5D8" transform="translate(477,166)"/>
<path d="M0 0 C22.56573705 -0.26444223 22.56573705 -0.26444223 28 5 C26.35 5.33 24.7 5.66 23 6 C22.67 5.01 22.34 4.02 22 3 C19.77260299 4.06201737 19.77260299 4.06201737 17 6 C14.66800612 6.07905064 12.33167378 6.08798769 10 6 C10 4.68 10 3.36 10 2 C6.7 1.67 3.4 1.34 0 1 C0 0.67 0 0.34 0 0 Z " fill="#37618E" transform="translate(310,130)"/>
<path d="M0 0 C1.3791315 3.83092082 0.57492206 7.04741082 0 11 C0.33 11.99 0.66 12.98 1 14 C0.0625 17.1875 0.0625 17.1875 -1 20 C-1.66 20 -2.32 20 -3 20 C-3.33 27.59 -3.66 35.18 -4 43 C-4.33 43 -4.66 43 -5 43 C-5.4026555 27.93242462 -4.98701013 14.39728142 0 0 Z " fill="#88CAE1" transform="translate(497,154)"/>
<path d="M0 0 C1.2077558 3.62326739 0.54311128 4.64146369 -1 8 C-1.66 8 -2.32 8 -3 8 C-3 9.32 -3 10.64 -3 12 C-2.34 12 -1.68 12 -1 12 C-1 11.34 -1 10.68 -1 10 C-0.34 10 0.32 10 1 10 C0.67 10.99 0.34 11.98 0 13 C-3.0625 14.1875 -3.0625 14.1875 -6 15 C-6.0825 14.401875 -6.165 13.80375 -6.25 13.1875 C-7.20630014 10.39829126 -8.62860019 9.65523707 -11 8 C-10.37351562 7.67386719 -9.74703125 7.34773437 -9.1015625 7.01171875 C-7.87566406 6.35623047 -7.87566406 6.35623047 -6.625 5.6875 C-5.81289063 5.25824219 -5.00078125 4.82898438 -4.1640625 4.38671875 C-1.73165957 3.03221276 -1.73165957 3.03221276 0 0 Z " fill="#68BDE3" transform="translate(636,153)"/>
<path d="M0 0 C6.6 0.66 13.2 1.32 20 2 C16.7587694 5.2412306 16.27976683 5.40090847 12 5.6875 C11.13375 5.75324219 10.2675 5.81898438 9.375 5.88671875 C7.5849705 5.97209845 5.79206453 6 4 6 C4 5.34 4 4.68 4 4 C3.01 3.67 2.02 3.34 1 3 C0.67 2.01 0.34 1.02 0 0 Z " fill="#205685" transform="translate(388,185)"/>
<path d="M0 0 C3.63 0 7.26 0 11 0 C11 3.63 11 7.26 11 11 C10.34 10.34 9.68 9.68 9 9 C8.34 9.66 7.68 10.32 7 11 C7 9.68 7 8.36 7 7 C6.34 6.67 5.68 6.34 5 6 C4.67 5.01 4.34 4.02 4 3 C2.35 2.67 0.7 2.34 -1 2 C-0.67 1.34 -0.34 0.68 0 0 Z " fill="#2C6B9B" transform="translate(452,132)"/>
<path d="M0 0 C3.96 0 7.92 0 12 0 C11.34 1.98 10.68 3.96 10 6 C6.7 6 3.4 6 0 6 C0 4.02 0 2.04 0 0 Z " fill="#56B7E4" transform="translate(665,103)"/>
<path d="M0 0 C0.66666667 1.33333333 1.33333333 2.66666667 2 4 C2.37125 4.5775 2.7425 5.155 3.125 5.75 C4.46160487 9.18698395 4.12238184 12.32854467 4 16 C2.02 15.34 0.04 14.68 -2 14 C-2.125 7.25 -2.125 7.25 -1 5 C-1.39938767 2.90178785 -1.39938767 2.90178785 -2 1 C-1.34 0.67 -0.68 0.34 0 0 Z " fill="#2B5E8B" transform="translate(347,146)"/>
<path d="M0 0 C0.90681898 6.95227885 -1.96401956 11.44353939 -6 17 C-6.33 17 -6.66 17 -7 17 C-6.45335494 11.80687194 -5.78033415 6.94537265 -4 2 C-1 0 -1 0 0 0 Z " fill="#5FB8DC" transform="translate(503,149)"/>
<path d="M0 0 C1.98 0.66 3.96 1.32 6 2 C6 2.66 6 3.32 6 4 C7.32 4.66 8.64 5.32 10 6 C3.19796625 6.37634203 -1.75690073 5.77471079 -8 3 C-8 2.67 -8 2.34 -8 2 C-6.865625 1.855625 -5.73125 1.71125 -4.5625 1.5625 C-1.19222799 1.38828522 -1.19222799 1.38828522 0 0 Z " fill="#5EACD3" transform="translate(524,222)"/>
<path d="M0 0 C0.33 0.66 0.66 1.32 1 2 C1.66 2.33 2.32 2.66 3 3 C2.67 4.65 2.34 6.3 2 8 C2.99 7.67 3.98 7.34 5 7 C6.39439664 6.93334624 7.79169875 6.91461801 9.1875 6.9375 C11.0746875 6.9684375 11.0746875 6.9684375 13 7 C9.09971775 9.60018816 5.52565431 9.15085514 1 9 C2.35225523 16.68636026 2.35225523 16.68636026 5 24 C2.5546875 22.95703125 2.5546875 22.95703125 0 21 C-0.7421875 17.63671875 -0.7421875 17.63671875 -0.875 13.6875 C-0.93429687 12.39199219 -0.99359375 11.09648437 -1.0546875 9.76171875 C-1.00549291 6.37783387 -0.66725646 3.31061857 0 0 Z " fill="#79C2E1" transform="translate(603,165)"/>
<path d="M0 0 C0.99 0.33 1.98 0.66 3 1 C2.53199289 5.05606165 2.12046792 8.46588679 0 12 C-0.66 11.34 -1.32 10.68 -2 10 C-2.99 12.64 -3.98 15.28 -5 18 C-6.16954852 13.3218059 -5.5324555 12.16414028 -3.625 7.875 C-3.16351563 6.82054687 -2.70203125 5.76609375 -2.2265625 4.6796875 C-1.50759675 3.10895342 -0.7725435 1.545087 0 0 Z " fill="#82CCE5" transform="translate(509,122)"/>
<path d="M0 0 C0.66 0.33 1.32 0.66 2 1 C2 4.11227195 1.54372951 6.94152152 1 10 C0.05125 9.814375 -0.8975 9.62875 -1.875 9.4375 C-4.89868793 8.71313368 -4.89868793 8.71313368 -7 10 C-7.66 9.34 -8.32 8.68 -9 8 C-8.43410156 7.59007812 -7.86820312 7.18015625 -7.28515625 6.7578125 C-6.18494141 5.94957031 -6.18494141 5.94957031 -5.0625 5.125 C-4.33160156 4.59132812 -3.60070312 4.05765625 -2.84765625 3.5078125 C-0.88901765 2.11987896 -0.88901765 2.11987896 0 0 Z " fill="#4496C6" transform="translate(445,212)"/>
<path d="M0 0 C14.19 0.33 28.38 0.66 43 1 C43 1.33 43 1.66 43 2 C28.81 2.33 14.62 2.66 0 3 C0 2.01 0 1.02 0 0 Z " fill="#245E8B" transform="translate(381,169)"/>
<path d="M0 0 C0.99 0.99 1.98 1.98 3 3 C3.99 2.34 4.98 1.68 6 1 C5.71872579 2.48117801 5.42466268 3.95993249 5.125 5.4375 C4.96257812 6.26121094 4.80015625 7.08492187 4.6328125 7.93359375 C4.42398437 8.61550781 4.21515625 9.29742187 4 10 C3.01 10.495 3.01 10.495 2 11 C1.525625 10.505 1.05125 10.01 0.5625 9.5 C-0.75923698 7.88457803 -0.75923698 7.88457803 -2 8 C-2.125 5.125 -2.125 5.125 -2 2 C-1.34 1.34 -0.68 0.68 0 0 Z " fill="#50ABD2" transform="translate(480,164)"/>
<path d="M0 0 C0.99 0 1.98 0 3 0 C2 7.42857143 2 7.42857143 1 11 C0.01 11 -0.98 11 -2 11 C-2 12.32 -2 13.64 -2 15 C-2.66 15 -3.32 15 -4 15 C-3.43179252 9.54520815 -2.05362055 5.08940744 0 0 Z " fill="#6AB9DC" transform="translate(502,117)"/>
<path d="M0 0 C2.25 4.5 2.25 4.5 2.1953125 8.109375 C2.18886719 8.86347656 2.18242187 9.61757812 2.17578125 10.39453125 C2.15902344 11.17183594 2.14226562 11.94914063 2.125 12.75 C2.11597656 13.54277344 2.10695313 14.33554688 2.09765625 15.15234375 C2.07417012 17.10169281 2.03830137 19.05088575 2 21 C2.99 21 3.98 21 5 21 C4.67 21.99 4.34 22.98 4 24 C2.68 24 1.36 24 0 24 C0 16.08 0 8.16 0 0 Z " fill="#1F5280" transform="translate(444,176)"/>
<path d="M0 0 C0.66 0.33 1.32 0.66 2 1 C1.51789063 1.53109375 1.03578125 2.0621875 0.5390625 2.609375 C-0.09257812 3.31578125 -0.72421875 4.0221875 -1.375 4.75 C-2.00148438 5.44609375 -2.62796875 6.1421875 -3.2734375 6.859375 C-4.87505183 8.84508688 -5.96520068 10.67954093 -7 13 C-7.99 13 -8.98 13 -10 13 C-10 12.34 -10 11.68 -10 11 C-11.32 11.33 -12.64 11.66 -14 12 C-10.96606031 8.73268033 -7.69842881 6.4656192 -4 4 C-2.63113049 2.70317626 -1.2830709 1.38176866 0 0 Z " fill="#3D6F94" transform="translate(456,199)"/>
<path d="M0 0 C0.99 0 1.98 0 3 0 C3 6.93 3 13.86 3 21 C2.34 21 1.68 21 1 21 C1 14.73 1 8.46 1 2 C0.34 1.67 -0.32 1.34 -1 1 C-0.67 0.67 -0.34 0.34 0 0 Z " fill="#C9D1D9" transform="translate(136,177)"/>
<path d="M0 0 C0.66 0.33 1.32 0.66 2 1 C0.75 3 0.75 3 -1 5 C-2.32 5 -3.64 5 -5 5 C-5 5.66 -5 6.32 -5 7 C-6.95927063 8.7143618 -8.95880212 10.38405168 -11 12 C-11.66 11.01 -12.32 10.02 -13 9 C-11.40012144 7.68227638 -9.79494034 6.37098863 -8.1875 5.0625 C-7.29417969 4.33160156 -6.40085937 3.60070312 -5.48046875 2.84765625 C-3 1 -3 1 0 0 Z " fill="#70C6E6" transform="translate(537,110)"/>
<path d="M0 0 C0.36923077 6.4 0.36923077 6.4 -1.5 9.4375 C-1.995 9.953125 -2.49 10.46875 -3 11 C-3 9.68 -3 8.36 -3 7 C-3.66 7.66 -4.32 8.32 -5 9 C-5.66 7.68 -6.32 6.36 -7 5 C-3.61290323 0 -3.61290323 0 0 0 Z " fill="#5CB2D7" transform="translate(488,159)"/>
<path d="M0 0 C0 5.61 0 11.22 0 17 C-0.33 17 -0.66 17 -1 17 C-1.06058594 16.40832031 -1.12117188 15.81664062 -1.18359375 15.20703125 C-1.62012371 11.09021792 -2.08671346 7.04455467 -3 3 C-5.31 3.33 -7.62 3.66 -10 4 C-6.86268382 1.90845588 -3.85464592 0 0 0 Z " fill="#52789A" transform="translate(346,181)"/>
<path d="M0 0 C2.62386487 3.06117568 3 3.73173127 3 8 C2.34 8 1.68 8 1 8 C1 8.99 1 9.98 1 11 C0.34 11 -0.32 11 -1 11 C-1 14.63 -1 18.26 -1 22 C-1.33 22 -1.66 22 -2 22 C-2.19355213 14.34393782 -2.3479743 7.33741969 0 0 Z " fill="#7DC5E3" transform="translate(593,160)"/>
<path d="M0 0 C1.50863792 3.01727584 0.33038897 4.85173376 -0.6875 8 C-1.02136719 9.0725 -1.35523438 10.145 -1.69921875 11.25 C-3 14 -3 14 -5.14453125 15.375 C-5.75683594 15.58125 -6.36914062 15.7875 -7 16 C-7 16.99 -7 17.98 -7 19 C-7.66 19 -8.32 19 -9 19 C-7.125 13.25 -7.125 13.25 -6 11 C-5.34 11 -4.68 11 -4 11 C-3.896875 10.29875 -3.79375 9.5975 -3.6875 8.875 C-2.90640997 5.60862353 -1.57941257 2.9528148 0 0 Z " fill="#81C7E1" transform="translate(501,117)"/>
<path d="M0 0 C0.33 0 0.66 0 1 0 C1 5.28 1 10.56 1 16 C0.01 16 -0.98 16 -2 16 C-2.20674944 10.21101581 -1.59162079 5.57067277 0 0 Z " fill="#80CAE5" transform="translate(674,120)"/>
<path d="M0 0 C5.94 0 11.88 0 18 0 C17.67 1.65 17.34 3.3 17 5 C16.01 4.67 15.02 4.34 14 4 C14 3.34 14 2.68 14 2 C12.80375 2.020625 11.6075 2.04125 10.375 2.0625 C6.81995131 2.06882571 3.49444376 1.69888875 0 1 C0 0.67 0 0.34 0 0 Z " fill="#37719D" transform="translate(386,130)"/>
<path d="M0 0 C0.99 0 1.98 0 3 0 C3.84098656 4.01804691 4.05404945 7.01803543 3 11 C2.01 10.67 1.02 10.34 0 10 C-1.36952673 7.26094655 -1.12621361 5.02912668 -1 2 C-0.67 1.34 -0.34 0.68 0 0 Z " fill="#7DC6E4" transform="translate(474,110)"/>
<path d="M0 0 C1.4540625 0.0309375 1.4540625 0.0309375 2.9375 0.0625 C2.99808594 0.67738281 3.05867187 1.29226562 3.12109375 1.92578125 C3.20488281 2.73402344 3.28867188 3.54226562 3.375 4.375 C3.45621094 5.17550781 3.53742188 5.97601563 3.62109375 6.80078125 C3.89015693 9.22337179 3.89015693 9.22337179 4.9375 12.0625 C3.9475 12.0625 2.9575 12.0625 1.9375 12.0625 C1.6075 9.4225 1.2775 6.7825 0.9375 4.0625 C-0.3825 4.0625 -1.7025 4.0625 -3.0625 4.0625 C-3.3925 3.0725 -3.7225 2.0825 -4.0625 1.0625 C-3.0625 0.0625 -3.0625 0.0625 0 0 Z " fill="#355783" transform="translate(249.0625,131.9375)"/>
<path d="M0 0 C0.33 0.66 0.66 1.32 1 2 C2.65 2 4.3 2 6 2 C0.24736889 5.83508741 -6.31800851 5.11884965 -13 5 C-9.48375245 3.05841983 -7.0284349 2.81688932 -3 3 C-3 2.34 -3 1.68 -3 1 C-2.01 0.67 -1.02 0.34 0 0 Z " fill="#68B4D7" transform="translate(431,224)"/>
<path d="M0 0 C0 0.66 0 1.32 0 2 C-2 4 -2 4 -3.9453125 4.1953125 C-5.96354167 4.13020833 -7.98177083 4.06510417 -10 4 C-10 2.68 -10 1.36 -10 0 C-6.30581799 -1.231394 -3.7943739 -0.64432764 0 0 Z " fill="#44ABDB" transform="translate(664,195)"/>
<path d="M0 0 C0.99 0.33 1.98 0.66 3 1 C3 1.99 3 2.98 3 4 C1.73581754 4.69965443 0.46334598 5.38434763 -0.8125 6.0625 C-1.52019531 6.44535156 -2.22789062 6.82820313 -2.95703125 7.22265625 C-5 8 -5 8 -8 7 C-6.74057614 5.80040625 -5.46704714 4.61560557 -4.1875 3.4375 C-3.12595703 2.44556641 -3.12595703 2.44556641 -2.04296875 1.43359375 C-1.36878906 0.96050781 -0.69460938 0.48742187 0 0 Z " fill="#89CBE6" transform="translate(500,90)"/>
<path d="M0 0 C0.90492188 0.30357422 0.90492188 0.30357422 1.828125 0.61328125 C-6.24932375 8.28070722 -6.24932375 8.28070722 -12.171875 9.61328125 C-10.796875 7.61328125 -10.796875 7.61328125 -9.171875 5.61328125 C-8.511875 5.61328125 -7.851875 5.61328125 -7.171875 5.61328125 C-7.171875 4.95328125 -7.171875 4.29328125 -7.171875 3.61328125 C-2.92048515 -0.52001444 -2.92048515 -0.52001444 0 0 Z " fill="#76C7E9" transform="translate(527.171875,69.38671875)"/>
<path d="M0 0 C2.53524446 1.01409778 3.77139002 1.61497266 5.1875 4 C5.455625 4.66 5.72375 5.32 6 6 C6.33 6.66 6.66 7.32 7 8 C4.69 7.67 2.38 7.34 0 7 C0 7.66 0 8.32 0 9 C-0.66 8.67 -1.32 8.34 -2 8 C-1.34 5.36 -0.68 2.72 0 0 Z " fill="#4B94C2" transform="translate(513,210)"/>
<path d="M0 0 C0.66 0 1.32 0 2 0 C2 1.65 2 3.3 2 5 C1.01 5.33 0.02 5.66 -1 6 C-1.33 6.99 -1.66 7.98 -2 9 C-2.33 7.68 -2.66 6.36 -3 5 C-3.66 5 -4.32 5 -5 5 C-5 5.66 -5 6.32 -5 7 C-6.98 7 -8.96 7 -11 7 C-11 6.67 -11 6.34 -11 6 C-9.35 6 -7.7 6 -6 6 C-6 5.34 -6 4.68 -6 4 C-5.195625 3.71125 -4.39125 3.4225 -3.5625 3.125 C-0.8673532 2.26737432 -0.8673532 2.26737432 0 0 Z " fill="#DEE9F1" transform="translate(454,195)"/>
<path d="M0 0 C0 3 0 3 -1 6 C-0.01 6.33 0.98 6.66 2 7 C1.34 7 0.68 7 0 7 C-0.33 7.99 -0.66 8.98 -1 10 C-1.66 10 -2.32 10 -3 10 C-4.63676257 11.9600281 -4.63676257 11.9600281 -6 14 C-5.57202798 8.29370646 -3.15654048 4.58921384 0 0 Z " fill="#74C4E4" transform="translate(600,146)"/>
<path d="M0 0 C-1.47692308 4.67692308 -1.47692308 4.67692308 -4.125 6.3125 C-4.74375 6.539375 -5.3625 6.76625 -6 7 C-6.66 6.01 -7.32 5.02 -8 4 C-8.66 3.67 -9.32 3.34 -10 3 C-8.70990357 2.49596232 -7.41786211 1.99690074 -6.125 1.5 C-5.04605469 1.08234375 -5.04605469 1.08234375 -3.9453125 0.65625 C-2 0 -2 0 0 0 Z " fill="#2D5B86" transform="translate(446,210)"/>
<path d="M0 0 C0.37769531 0.48082031 0.75539063 0.96164063 1.14453125 1.45703125 C3.64531405 3.53662958 5.47306804 3.49841577 8.6875 3.6875 C9.68136719 3.75324219 10.67523438 3.81898438 11.69921875 3.88671875 C12.45847656 3.92410156 13.21773438 3.96148437 14 4 C14 4.33 14 4.66 14 5 C13.10796875 5.06058594 12.2159375 5.12117187 11.296875 5.18359375 C9.54117187 5.30927734 9.54117187 5.30927734 7.75 5.4375 C6.58984375 5.51871094 5.4296875 5.59992188 4.234375 5.68359375 C1.69022624 5.93247787 -0.55953248 6.28114942 -3 7 C-3 6.34 -3 5.68 -3 5 C-3.66 4.67 -4.32 4.34 -5 4 C-3.35 3.67 -1.7 3.34 0 3 C0 2.01 0 1.02 0 0 Z " fill="#41648B" transform="translate(263,144)"/>
<path d="M0 0 C2.97 0 5.94 0 9 0 C9.33 0.99 9.66 1.98 10 3 C8.02 3.66 6.04 4.32 4 5 C4 4.34 4 3.68 4 3 C2.68 2.67 1.36 2.34 0 2 C0 1.34 0 0.68 0 0 Z " fill="#193A69" transform="translate(184,131)"/>
<path d="M0 0 C0.66 0.33 1.32 0.66 2 1 C1.3503125 1.556875 1.3503125 1.556875 0.6875 2.125 C-1.21133319 4.03812785 -1.21133319 4.03812785 -2.375 7.125 C-4 10 -4 10 -6.6875 10.875 C-7.450625 10.91625 -8.21375 10.9575 -9 11 C-7.44095325 7.17324889 -4.96833913 4.81992217 -2 2 C-1.34 1.34 -0.68 0.68 0 0 Z " fill="#E5F3F6" transform="translate(617,142)"/>
<path d="M0 0 C0.66 0.99 1.32 1.98 2 3 C1.5390625 5.04296875 1.5390625 5.04296875 0.625 7.1875 C0.32851563 7.90292969 0.03203125 8.61835938 -0.2734375 9.35546875 C-0.51320313 9.89816406 -0.75296875 10.44085938 -1 11 C-0.34 11 0.32 11 1 11 C1.33 9.35 1.66 7.7 2 6 C2.93423645 9.01031744 3.04449911 9.86650268 2 13 C0.35 13.33 -1.3 13.66 -3 14 C-2.58846263 9.02906176 -2.20399168 4.55491614 0 0 Z " fill="#C9E9F4" transform="translate(509,134)"/>
<path d="M0 0 C0.66 0.33 1.32 0.66 2 1 C0.43358249 5.30764815 -1.68336156 9.06171464 -4 13 C-5.27903133 9.16290601 -4.50674062 7.69151452 -3 4 C-1.375 1.625 -1.375 1.625 0 0 Z " fill="#EDF7F8" transform="translate(510,97)"/>
<path d="M0 0 C0.75 1.5625 0.75 1.5625 1 4 C-0.13084437 6.50286409 -1.52139516 8.67007722 -3 11 C-3.99 10.67 -4.98 10.34 -6 10 C-4.6302836 6.00499382 -2.74277578 3.19990508 0 0 Z " fill="#86C8E4" transform="translate(519,88)"/>
<path d="M0 0 C0.66 0.33 1.32 0.66 2 1 C1.3125 3.375 1.3125 3.375 0 6 C-2.625 7.3125 -2.625 7.3125 -5 8 C-5.33 6.68 -5.66 5.36 -6 4 C-4.02 2.68 -2.04 1.36 0 0 Z " fill="#69BBE4" transform="translate(508,85)"/>
<path d="M0 0 C0 1.65 0 3.3 0 5 C-1.98 5 -3.96 5 -6 5 C-6 4.01 -6 3.02 -6 2 C-7.32 1.67 -8.64 1.34 -10 1 C-6.61981469 -0.04005702 -3.5219721 -0.08004482 0 0 Z " fill="#68BDE1" transform="translate(688,101)"/>
<path d="M0 0 C0.66 0.66 1.32 1.32 2 2 C2.33 1.34 2.66 0.68 3 0 C3.66 0.33 4.32 0.66 5 1 C3.35 4.3 1.7 7.6 0 11 C-0.66 10.34 -1.32 9.68 -2 9 C-1.70630173 7.65737935 -1.3721042 6.32303717 -1 5 C-1.33 4.34 -1.66 3.68 -2 3 C-1.34 2.01 -0.68 1.02 0 0 Z " fill="#C5E6F3" transform="translate(525,83)"/>
<path d="M0 0 C0.66 0 1.32 0 2 0 C2 2.97 2 5.94 2 9 C1.01 8.67 0.02 8.34 -1 8 C-1 7.34 -1 6.68 -1 6 C-1.99 5.67 -2.98 5.34 -4 5 C-2.71937515 3.2925002 -1.38232443 1.62626404 0 0 Z " fill="#D2D9E0" transform="translate(192,192)"/>
<path d="M0 0 C0.66 1.32 1.32 2.64 2 4 C1.360625 4.103125 0.72125 4.20625 0.0625 4.3125 C-0.618125 4.539375 -1.29875 4.76625 -2 5 C-2.33 5.99 -2.66 6.98 -3 8 C-4.65 8.33 -6.3 8.66 -8 9 C-6.90101298 5.70303895 -6.05402613 4.95329411 -3.4375 2.8125 C-2.79683594 2.28269531 -2.15617188 1.75289062 -1.49609375 1.20703125 C-0.75552734 0.60955078 -0.75552734 0.60955078 0 0 Z " fill="#69BDE2" transform="translate(609,137)"/>
<path d="M0 0 C0.33 0 0.66 0 1 0 C1 4.95 1 9.9 1 15 C-1.31 15.33 -3.62 15.66 -6 16 C-5.67 15.01 -5.34 14.02 -5 13 C-3.35 13 -1.7 13 0 13 C0 8.71 0 4.42 0 0 Z " fill="#235784" transform="translate(422,182)"/>
<path d="M0 0 C0 3.3 0 6.6 0 10 C-0.66 10 -1.32 10 -2 10 C-2 9.34 -2 8.68 -2 8 C-2.66 8 -3.32 8 -4 8 C-3.74438677 5.6568787 -3.40729228 3.32156597 -3 1 C-1 0 -1 0 0 0 Z " fill="#1F5989" transform="translate(463,172)"/>
<path d="M0 0 C0.33 0 0.66 0 1 0 C0.91231752 1.5843317 0.80412671 3.16753567 0.6875 4.75 C0.62949219 5.63171875 0.57148438 6.5134375 0.51171875 7.421875 C-0.0641181 10.32303774 -1.07596148 11.79225607 -3 14 C-3.08226668 10.95613276 -2.97608217 8.92824652 -2 6 C-1.835 5.13375 -1.67 4.2675 -1.5 3.375 C-1 1 -1 1 0 0 Z " fill="#F5FCFC" transform="translate(508,146)"/>
<path d="M0 0 C0.99 0.33 1.98 0.66 3 1 C2.01 2.485 2.01 2.485 1 4 C0.34 4 -0.32 4 -1 4 C-1.33 5.65 -1.66 7.3 -2 9 C-3.32 8.67 -4.64 8.34 -6 8 C-5.34 8 -4.68 8 -4 8 C-3.896875 7.236875 -3.79375 6.47375 -3.6875 5.6875 C-2.95635961 2.82940576 -2.23048087 1.84257115 0 0 Z " fill="#3A77A4" transform="translate(469,135)"/>
<path d="M0 0 C0.66 0.33 1.32 0.66 2 1 C2 1.33 2 1.66 2 2 C3.65 2.33 5.3 2.66 7 3 C7 3.33 7 3.66 7 4 C-1.57142857 4.14285714 -1.57142857 4.14285714 -5 3 C-5 3.66 -5 4.32 -5 5 C-6.32 4.67 -7.64 4.34 -9 4 C-7.54618103 3.30300448 -6.08677047 2.61766134 -4.625 1.9375 C-3.40683594 1.36322266 -3.40683594 1.36322266 -2.1640625 0.77734375 C-1.44992187 0.52082031 -0.73578125 0.26429688 0 0 Z " fill="#4E9DC8" transform="translate(433,222)"/>
<path d="M0 0 C0.66 0 1.32 0 2 0 C1.58221009 5.7097955 -0.57546571 8.60957142 -4 13 C-4.66 12.01 -5.32 11.02 -6 10 C-4.68 9.34 -3.36 8.68 -2 8 C-2 7.01 -2 6.02 -2 5 C-1.34 5 -0.68 5 0 5 C-0.33 4.01 -0.66 3.02 -1 2 C-0.67 1.34 -0.34 0.68 0 0 Z " fill="#57A6CF" transform="translate(472,192)"/>
<path d="M0 0 C0.99 0 1.98 0 3 0 C3.433125 0.9590625 3.433125 0.9590625 3.875 1.9375 C4.82823451 4.15206079 4.82823451 4.15206079 7 5 C6.67 5.99 6.34 6.98 6 8 C3.5625 6.8125 3.5625 6.8125 1 5 C0.1875 2.3125 0.1875 2.3125 0 0 Z " fill="#205683" transform="translate(365,183)"/>
<path d="M0 0 C2 2 2 2 2 6 C-4.27 5.67 -10.54 5.34 -17 5 C-17 4.67 -17 4.34 -17 4 C-11.39 4 -5.78 4 0 4 C0 2.68 0 1.36 0 0 Z " fill="#4D678F" transform="translate(193,154)"/>
<path d="M0 0 C5.875 4.625 5.875 4.625 7 8 C5.68 8 4.36 8 3 8 C2.34 7.01 1.68 6.02 1 5 C0.34 5 -0.32 5 -1 5 C-0.67 3.35 -0.34 1.7 0 0 Z " fill="#3974A1" transform="translate(417,136)"/>
<path d="M0 0 C0.33 0.66 0.66 1.32 1 2 C2.65 2 4.3 2 6 2 C6 2.66 6 3.32 6 4 C5.34 4 4.68 4 4 4 C4 4.66 4 5.32 4 6 C2.35 6 0.7 6 -1 6 C-1.042721 4.33388095 -1.04063832 2.66617115 -1 1 C-0.67 0.67 -0.34 0.34 0 0 Z " fill="#5CB6E3" transform="translate(576,128)"/>
<path d="M0 0 C1.32 0.33 2.64 0.66 4 1 C4.625 2.875 4.625 2.875 5 5 C4.34 5.66 3.68 6.32 3 7 C2.01 7 1.02 7 0 7 C0 4.69 0 2.38 0 0 Z " fill="#225887" transform="translate(363,175)"/>
<path d="M0 0 C0.33 0 0.66 0 1 0 C1.49230769 7.38461538 1.49230769 7.38461538 -1 10.5 C-1.66 10.995 -2.32 11.49 -3 12 C-3.33 10.68 -3.66 9.36 -4 8 C-3.34 8 -2.68 8 -2 8 C-2.04125 7.05125 -2.0825 6.1025 -2.125 5.125 C-2 2 -2 2 0 0 Z " fill="#E7F6F9" transform="translate(637,144)"/>
<path d="M0 0 C0.66 0.33 1.32 0.66 2 1 C2 2.32 2 3.64 2 5 C1.34 5 0.68 5 0 5 C-0.33 5.66 -0.66 6.32 -1 7 C-4.96 6.67 -8.92 6.34 -13 6 C-13 5.67 -13 5.34 -13 5 C-9.04 5 -5.08 5 -1 5 C-0.67 3.35 -0.34 1.7 0 0 Z " fill="#5AA2C9" transform="translate(488,143)"/>
<path d="M0 0 C1.46067199 0.45082469 2.91848032 0.91093537 4.375 1.375 C5.18710938 1.63023437 5.99921875 1.88546875 6.8359375 2.1484375 C9 3 9 3 11 5 C7.05220686 5 4.6037898 4.52160014 1 3 C0.67 2.01 0.34 1.02 0 0 Z " fill="#254776" transform="translate(193,131)"/>
<path d="M0 0 C2.76223278 2.76223278 2.57856291 5.20706617 3 9 C-0.75283733 7.54728878 -0.75283733 7.54728878 -1.875 5.0625 C-2 3 -2 3 0 0 Z " fill="#6CBCE2" transform="translate(542,85)"/>
<path d="M0 0 C0.66 0.33 1.32 0.66 2 1 C0.32482761 4.53647504 -0.49280817 5.7911563 -4.1875 7.3125 C-5.5796875 7.6528125 -5.5796875 7.6528125 -7 8 C-5.50902342 4.2047869 -3.24299151 2.38957269 0 0 Z " fill="#395A80" transform="translate(158,163)"/>
<path d="M0 0 C1.10844919 3.32534757 0.84454356 5.62182575 0 9 C-0.66 9 -1.32 9 -2 9 C-2 10.32 -2 11.64 -2 13 C-1.01 13.33 -0.02 13.66 1 14 C-0.32 14 -1.64 14 -3 14 C-3.34615998 8.34605369 -2.43425238 4.96993194 0 0 Z " fill="#CBE7F0" transform="translate(607,153)"/>
<path d="M0 0 C2.64 0.33 5.28 0.66 8 1 C7.67 4.63 7.34 8.26 7 12 C6.67 12 6.34 12 6 12 C5.9071875 10.14375 5.9071875 10.14375 5.8125 8.25 C5.39643071 4.69449876 5.15744896 4.15360875 2.4375 1.5 C1.633125 1.005 0.82875 0.51 0 0 Z " fill="#6FBEE1" transform="translate(632,140)"/>
<path d="M0 0 C0.99 0.33 1.98 0.66 3 1 C2.74438677 3.3431213 2.40729228 5.67843403 2 8 C1.01 8.495 1.01 8.495 0 9 C-1.125 2.25 -1.125 2.25 0 0 Z " fill="#71C3E0" transform="translate(509,122)"/>
<path d="M0 0 C0.28875 0.639375 0.5775 1.27875 0.875 1.9375 C1.82823451 4.15206079 1.82823451 4.15206079 4 5 C4 5.66 4 6.32 4 7 C0.22454612 5.90931332 -2.47043472 5.0916909 -5 2 C-3.35 1.34 -1.7 0.68 0 0 Z " fill="#4C678B" transform="translate(83,192)"/>
<path d="M0 0 C1.4540625 0.0309375 1.4540625 0.0309375 2.9375 0.0625 C1.9375 3.0625 1.9375 3.0625 -1.125 4.75 C-2.094375 5.183125 -3.06375 5.61625 -4.0625 6.0625 C-4.105221 4.39638095 -4.10313832 2.72867115 -4.0625 1.0625 C-3.0625 0.0625 -3.0625 0.0625 0 0 Z " fill="#69BEE5" transform="translate(481.0625,107.9375)"/>
<path d="M0 0 C0.99 0.33 1.98 0.66 3 1 C3.765625 2.7421875 3.765625 2.7421875 4.25 4.875 C4.50523437 5.92300781 4.50523437 5.92300781 4.765625 6.9921875 C5 9 5 9 4 12 C3.32645501 10.56570999 2.66140299 9.12742943 2 7.6875 C1.62875 6.88699219 1.2575 6.08648437 0.875 5.26171875 C0 3 0 3 0 0 Z " fill="#6AB4D2" transform="translate(493,198)"/>
<path d="M0 0 C2 1.3125 2 1.3125 4 3 C4 3.99 4 4.98 4 6 C1.69 5.34 -0.62 4.68 -3 4 C-2.01 2.68 -1.02 1.36 0 0 Z " fill="#1D5180" transform="translate(380,193)"/>
<path d="M0 0 C-0.33 0.66 -0.66 1.32 -1 2 C-4.4375 2.75 -4.4375 2.75 -8 3 C-8.66 2.34 -9.32 1.68 -10 1 C-6.21812119 -0.83691257 -4.05431692 -1.15837626 0 0 Z " fill="#315C8B" transform="translate(310,132)"/>
<path d="M0 0 C1.32 0.33 2.64 0.66 4 1 C4 4 4 4 3 7 C2.34 7 1.68 7 1 7 C1.33 5.68 1.66 4.36 2 3 C1.67 3.33 1.34 3.66 1 4 C0.01 4 -0.98 4 -2 4 C-1.34 2.68 -0.68 1.36 0 0 Z " fill="#E4F4F9" transform="translate(527,81)"/>
<path d="M0 0 C2 1 2 1 4 4 C4.66 4 5.32 4 6 4 C6 3.01 6 2.02 6 1 C6.66 1 7.32 1 8 1 C7.67 2.65 7.34 4.3 7 6 C6.34 6 5.68 6 5 6 C4.67 6.66 4.34 7.32 4 8 C4 7.34 4 6.68 4 6 C3.01 5.67 2.02 5.34 1 5 C0.67 3.35 0.34 1.7 0 0 Z " fill="#4A648A" transform="translate(63,175)"/>
<path d="M0 0 C0.99 0 1.98 0 3 0 C2.88512252 1.58409994 2.75765492 3.16728963 2.625 4.75 C2.52058594 6.07257813 2.52058594 6.07257813 2.4140625 7.421875 C2 10 2 10 0 14 C0 9.38 0 4.76 0 0 Z " fill="#DCF2F6" transform="translate(667,148)"/>
<path d="M0 0 C1.134375 0.020625 2.26875 0.04125 3.4375 0.0625 C3.4375 0.7225 3.4375 1.3825 3.4375 2.0625 C1.4575 3.0525 -0.5225 4.0425 -2.5625 5.0625 C-3.2225 3.7425 -3.8825 2.4225 -4.5625 1.0625 C-3.5625 0.0625 -3.5625 0.0625 0 0 Z " fill="#2F6D9C" transform="translate(387.5625,143.9375)"/>
<path d="M0 0 C1.51953125 1.11328125 1.51953125 1.11328125 3 3 C3.07421875 5.91796875 3.07421875 5.91796875 2.6875 9.1875 C2.56761719 10.27417969 2.44773437 11.36085937 2.32421875 12.48046875 C2.21722656 13.31191406 2.11023438 14.14335937 2 15 C1.67 15 1.34 15 1 15 C0.15318867 9.91913204 -0.09038099 5.15171623 0 0 Z " fill="#60B3D6" transform="translate(721,128)"/>
<path d="M0 0 C0.66 0.33 1.32 0.66 2 1 C1.01 2.485 1.01 2.485 0 4 C-2.1640625 4.29296875 -2.1640625 4.29296875 -4.625 4.1875 C-5.44226563 4.16042969 -6.25953125 4.13335937 -7.1015625 4.10546875 C-8.04128906 4.05326172 -8.04128906 4.05326172 -9 4 C-6.04245816 2.5086438 -3.13948098 1.07403297 0 0 Z " fill="#39678B" transform="translate(433,214)"/>
<path d="M0 0 C0.99 0 1.98 0 3 0 C5 3 5 3 4.75 5.125 C4 7 4 7 2 8 C1.34 6.68 0.68 5.36 0 4 C0.66 4 1.32 4 2 4 C2 3.01 2 2.02 2 1 C1.34 0.67 0.68 0.34 0 0 Z " fill="#68B9DE" transform="translate(639,186)"/>
<path d="M0 0 C1.37478516 0.01740234 1.37478516 0.01740234 2.77734375 0.03515625 C3.69644531 0.04417969 4.61554687 0.05320312 5.5625 0.0625 C6.27277344 0.07410156 6.98304688 0.08570312 7.71484375 0.09765625 C4.71484375 2.09765625 4.71484375 2.09765625 0.71484375 2.09765625 C0.71484375 2.75765625 0.71484375 3.41765625 0.71484375 4.09765625 C0.05484375 4.09765625 -0.60515625 4.09765625 -1.28515625 4.09765625 C-1.28515625 3.43765625 -1.28515625 2.77765625 -1.28515625 2.09765625 C-1.94515625 1.76765625 -2.60515625 1.43765625 -3.28515625 1.09765625 C-2.28515625 0.09765625 -2.28515625 0.09765625 0 0 Z " fill="#7CC7E5" transform="translate(543.28515625,114.90234375)"/>
<path d="M0 0 C-2.64 1.98 -5.28 3.96 -8 6 C-7.75 3.625 -7.75 3.625 -7 1 C-4.12732844 -1.10662581 -3.46720491 -1.15573497 0 0 Z " fill="#E7F4F8" transform="translate(504,88)"/>
<path d="M0 0 C0.99 0.33 1.98 0.66 3 1 C2.814375 1.61875 2.62875 2.2375 2.4375 2.875 C1.76313824 5.04160178 1.76313824 5.04160178 3 7 C0.525 6.01 0.525 6.01 -2 5 C-2 4.01 -2 3.02 -2 2 C-1.34 2 -0.68 2 0 2 C0 1.34 0 0.68 0 0 Z " fill="#66B6DF" transform="translate(602,193)"/>
<path d="M0 0 C2.64 0 5.28 0 8 0 C8 1.65 8 3.3 8 5 C7.21625 4.525625 6.4325 4.05125 5.625 3.5625 C4.11051322 2.66101977 2.5764103 1.78820515 1 1 C0.67 1.66 0.34 2.32 0 3 C0 2.01 0 1.02 0 0 Z " fill="#4FADDD" transform="translate(570,173)"/>
<path d="M0 0 C0.25 2.3125 0.25 2.3125 0 5 C-2 6.8125 -2 6.8125 -4 8 C-3.74438677 5.6568787 -3.40729228 3.32156597 -3 1 C-1 0 -1 0 0 0 Z " fill="#1A4272" transform="translate(287,157)"/>
<path d="M0 0 C0.8353125 0.37125 0.8353125 0.37125 1.6875 0.75 C0.98625 1.1625 0.285 1.575 -0.4375 2 C-3.45403323 3.83615066 -6.38499245 5.77563445 -9.3125 7.75 C-7.69865111 3.642021 -4.79776509 -0.51867731 0 0 Z " fill="#B7CBDC" transform="translate(475.3125,149.25)"/>
<path d="M0 0 C2.97 0.495 2.97 0.495 6 1 C6 2.98 6 4.96 6 7 C4.5 5.625 4.5 5.625 3 4 C3 3.34 3 2.68 3 2 C2.01 2 1.02 2 0 2 C0 1.34 0 0.68 0 0 Z " fill="#2D6E9D" transform="translate(402,144)"/>
<path d="M0 0 C0.66 0.33 1.32 0.66 2 1 C2 2.32 2 3.64 2 5 C1.34 5 0.68 5 0 5 C0 6.32 0 7.64 0 9 C-0.66 9 -1.32 9 -2 9 C-1.125 2.25 -1.125 2.25 0 0 Z " fill="#5BB2DA" transform="translate(500,123)"/>
<path d="M0 0 C0.66 0.33 1.32 0.66 2 1 C0.875 3 0.875 3 -1 5 C-4.1875 5.25 -4.1875 5.25 -7 5 C-4.63707344 2.47411298 -3.33537489 1.11179163 0 0 Z " fill="#84CDE5" transform="translate(537,110)"/>
<path d="M0 0 C0.33 0 0.66 0 1 0 C1.09038099 5.15171623 0.84681133 9.91913204 0 15 C-0.33 15 -0.66 15 -1 15 C-2.01603857 9.20858017 -1.96263236 5.5415502 0 0 Z " fill="#63B3D9" transform="translate(675,178)"/>
<path d="M0 0 C0.66 0.33 1.32 0.66 2 1 C1.43945339 4.36327963 0.58158962 6.99112219 -1 10 C-1.02689216 8.52093108 -1.04634621 7.04172517 -1.0625 5.5625 C-1.07410156 4.73878906 -1.08570313 3.91507813 -1.09765625 3.06640625 C-1 1 -1 1 0 0 Z " fill="#245889" transform="translate(363,153)"/>
<path d="M0 0 C1 2 1 2 0.3125 4.5625 C-1 7 -1 7 -3.125 7.8125 C-3.74375 7.874375 -4.3625 7.93625 -5 8 C-1.125 1.125 -1.125 1.125 0 0 Z " fill="#D4EAEA" transform="translate(472,198)"/>
<path d="M0 0 C2.31 0.33 4.62 0.66 7 1 C7.33 2.32 7.66 3.64 8 5 C2.25 3.375 2.25 3.375 0 0 Z " fill="#466C94" transform="translate(294,194)"/>
<path d="M0 0 C1.5625 1.1875 1.5625 1.1875 3 3 C2.6875 5.6875 2.6875 5.6875 2 8 C1.34 8 0.68 8 0 8 C0 5.36 0 2.72 0 0 Z " fill="#38577E" transform="translate(84,168)"/>
<path d="M0 0 C0.33 0 0.66 0 1 0 C1 2.31 1 4.62 1 7 C-0.32 7.33 -1.64 7.66 -3 8 C-1.125 2.25 -1.125 2.25 0 0 Z " fill="#7FC4DE" transform="translate(477,166)"/>
<path d="M0 0 C0.99 0 1.98 0 3 0 C2.49396008 2.16874252 2.00016187 3.99967627 1 6 C0.34 6 -0.32 6 -1 6 C-1.042721 4.33388095 -1.04063832 2.66617115 -1 1 C-0.67 0.67 -0.34 0.34 0 0 Z " fill="#275A88" transform="translate(362,168)"/>
<path d="M0 0 C0.33 0 0.66 0 1 0 C1 1.65 1 3.3 1 5 C0.01 5 -0.98 5 -2 5 C-2 5.66 -2 6.32 -2 7 C-2.66 7 -3.32 7 -4 7 C-2.92598892 4.08482708 -2.22189824 2.22189824 0 0 Z " fill="#42688E" transform="translate(290,141)"/>
<path d="M0 0 C3.16115776 1.36983503 3.9927092 1.9890638 6 5 C1.25 4.125 1.25 4.125 -1 3 C-0.67 2.01 -0.34 1.02 0 0 Z " fill="#366491" transform="translate(339,137)"/>
<path d="M0 0 C0.6875 1.6875 0.6875 1.6875 1 4 C-0.3125 6.75 -0.3125 6.75 -2 9 C-2.66 9 -3.32 9 -4 9 C-4 8.34 -4 7.68 -4 7 C-3.34 7 -2.68 7 -2 7 C-1.855625 6.030625 -1.71125 5.06125 -1.5625 4.0625 C-1 1 -1 1 0 0 Z " fill="#D0E8EB" transform="translate(478,187)"/>
<path d="M0 0 C0.99 0 1.98 0 3 0 C3 2.31 3 4.62 3 7 C2.34 7 1.68 7 1 7 C0.67 4.69 0.34 2.38 0 0 Z " fill="#1E5784" transform="translate(377,170)"/>
<path d="M0 0 C0.99 0 1.98 0 3 0 C2.75 1.875 2.75 1.875 2 4 C-0.0625 5.25 -0.0625 5.25 -2 6 C-1.34 4.02 -0.68 2.04 0 0 Z " fill="#71C0DB" transform="translate(480,160)"/>
<path d="M0 0 C-2.76223278 2.76223278 -5.20706617 2.57856291 -9 3 C-5.83583464 -0.30799106 -4.50236011 -1.35070803 0 0 Z " fill="#427AA0" transform="translate(384,133)"/>
<path d="M0 0 C1 2 1 2 0.1875 5.0625 C-1 8 -1 8 -3 9 C-2.5020163 5.26512223 -2.12508244 3.18762365 0 0 Z " fill="#4C6A8A" transform="translate(66,125)"/>
<path d="M0 0 C2 3 2 3 1.625 5.1875 C1.41875 5.785625 1.2125 6.38375 1 7 C-0.32 6.67 -1.64 6.34 -3 6 C-2.67 5.01 -2.34 4.02 -2 3 C-1.34 3 -0.68 3 0 3 C0 2.01 0 1.02 0 0 Z " fill="#86C9E8" transform="translate(540,69)"/>
<path d="M0 0 C0.66 0 1.32 0 2 0 C1.67 1.65 1.34 3.3 1 5 C-0.65 5 -2.3 5 -4 5 C-2.71937515 3.2925002 -1.38232443 1.62626404 0 0 Z " fill="#82C9E7" transform="translate(537,59)"/>
</svg>
